<?xml version="1.0" encoding="utf-8"?>
<!-- Generator: Adobe Illustrator 19.0.0, SVG Export Plug-In . SVG Version: 6.00 Build 0)  -->
<svg version="1.1" id="Layer_1" xmlns="http://www.w3.org/2000/svg" xmlns:xlink="http://www.w3.org/1999/xlink" x="0px" y="0px"
	 viewBox="-3520.2 1886.5 730.8 197.1" style="enable-background:new -3520.2 1886.5 730.8 197.1;" xml:space="preserve">
<style type="text/css">
	.st0{fill:#0099FF;}
</style>
<g id="fundo_x5F_branco_2_">
	<path id="XMLID_2_" d="M-3489.7,1950.1c6.3-8.4,15.8-13.7,25.8-13.7c26.3,0,37.6,20.8,37.6,53.8c0,31.3-14.3,54.2-40.7,54.2
		c-10.1,0-19.1-4.4-25-12.4l-1.1,9.2h-27.1v-141.7l30.5-3.2V1950.1z M-3457.9,1990.5c0-25.2-6.3-31.7-15.8-31.7
		c-6.5,0-11.6,4.4-16,11.6v42.6c3.8,5.9,8.2,9.2,14.5,9.2C-3464.5,2022.2-3457.9,2013.2-3457.9,1990.5z"/>
	<path id="XMLID_5_" d="M-3334,2041.1h-77.3v-20.8h21v-59.8h-21v-20.8h48.1l2.5,18.9c4.6-13.5,15.5-21.9,27.9-21.9
		c5.2,0,8.2,0.6,12.6,1.7l-5,29.6c-3.8-1.1-7.3-1.5-11.6-1.5c-12.6,0-19.7,10.1-22.9,23.7v30.2h25.7V2041.1z"/>
	<polygon id="XMLID_7_" points="-3217.3,2041.1 -3302.2,2041.1 -3302.2,2020.3 -3273.6,2020.3 -3273.6,1960.5 -3301.3,1960.5 
		-3301.3,1939.7 -3243.1,1939.7 -3243.1,2020.3 -3217.3,2020.3 	"/>
	<path id="XMLID_8_" d="M-3276.5,1903.7c0-9.7,7.6-17.2,18.1-17.2s18.1,7.4,18.1,17.2c0,9.7-7.6,17.2-18.1,17.2
		S-3276.5,1913.4-3276.5,1903.7z"/>
	<path id="XMLID_9_" d="M-3147.3,1945.7v-49.5l30.5,3.2V2041h-27.1l-1.5-11.1c-5.5,7.8-14.7,14.3-28.1,14.3
		c-25.2,0-37.2-21.6-37.2-54.2c0-31.3,15.5-53.8,40.5-53.8C-3161.2,1936.3-3153.4,1939.6-3147.3,1945.7z M-3179.1,1990.3
		c0,25,6.5,31.7,15.6,31.7c6.5,0,11.8-4.4,16.2-11.6v-43.6c-4.2-5.2-8.6-8.2-14.7-8.2C-3172.3,1958.6-3179.1,1967.6-3179.1,1990.3z"
		/>
	<path id="XMLID_12_" d="M-3073.8,2047.8c-0.8,2.1-1.3,4-1.3,6.1c0,5.5,6.1,9.2,22.3,9.2c19.7,0,23.7-4.4,23.7-9.7
		c0-5.9-4.4-9-22.9-10.1c-30.9-2.1-39.5-9.2-39.5-22.3c0-6.7,4.2-12.8,11.1-17.4c-10.7-6.3-17.7-16.2-17.7-29.8
		c0-22.3,17-37.4,45.4-37.4c21.9,0,37.4-6.1,49.2-13.2l7.4,22.7c-7.3,3.1-17.6,3.8-29.2,3.8v0.8c11.3,4.8,18.1,12.8,18.1,25.6
		c0,19.5-16.8,33.8-43.5,33.8c-4,0-8.4-0.4-12.6-1.3c-1.5,1.5-2.3,3.2-2.3,4.6c0,4.4,2.5,5.9,28.1,7.6c25.6,1.7,39.1,13.2,39.1,30.5
		c0,21.4-20.8,32.3-54.2,32.3c-36.5,0-50-11.6-50-25.8c0-5.9,1-10.5,5.3-15.6L-3073.8,2047.8z M-3051.5,1989.7
		c9.4,0,15.1-5.9,15.1-17c0-10.5-5.3-15.8-15.1-15.8c-9.7,0-16,6.1-16,16.2C-3067.5,1983.8-3061,1989.7-3051.5,1989.7z"/>
	<path id="XMLID_15_" d="M-2958.7,1999.3c2.1,16.4,11.5,22.9,24.2,22.9c8.6,0,16.8-2.7,25.4-9.2l12.8,17.4
		c-9.9,7.8-24,13.9-40.5,13.9c-35.3,0-53.1-22.3-53.1-53.8c0-30,17.6-54.2,49.2-54.2c29.2,0,48.1,19.3,48.1,52.1
		c0,3.4-0.2,7.8-0.6,10.9L-2958.7,1999.3L-2958.7,1999.3z M-2959.1,1981h36.8c-0.2-14.3-5.2-24.2-18.1-24.2
		C-2950.9,1956.7-2957.8,1964.2-2959.1,1981z"/>
	<path id="XMLID_18_" class="st0" d="M-2893.2,2076.6v-23.9h103.8v23.9H-2893.2z"/>
</g>
</svg>
