<?xml version="1.0" encoding="utf-8"?>
<!-- Generator: Adobe Illustrator 19.0.0, SVG Export Plug-In . SVG Version: 6.00 Build 0)  -->
<svg version="1.1" id="Layer_1" xmlns="http://www.w3.org/2000/svg" xmlns:xlink="http://www.w3.org/1999/xlink" x="0px" y="0px"
	 viewBox="241.1 212.8 468.7 325.7" style="enable-background:new 241.1 212.8 468.7 325.7;" xml:space="preserve">
<style type="text/css">
	.st0{fill:#231F20;}
</style>
<title>LNCLogo_FundoClaro</title>
<g>
	<path class="st0" d="M516.5,275v48.7c0,3.1-2.5,5.6-5.6,5.6s-5.6-2.5-5.6-5.6v-48.8c0-16.1-13-29.1-29.1-29.1s-29.1,13-29.1,29.1
		v48.8c0,3.1-2.5,5.6-5.6,5.6s-5.6-2.5-5.6-5.6v-48.8c0-22.3,18.1-40.4,40.4-40.4C498.5,234.6,516.6,252.7,516.5,275L516.5,275z"/>
	<path class="st0" d="M412.3,246.7v77c0,3.1-2.5,5.6-5.6,5.6s-5.6-2.5-5.6-5.6v-77c0-3.1,2.5-5.6,5.6-5.6S412.3,243.5,412.3,246.7z"
		/>
	<path class="st0" d="M413.6,219.8c0,3.8-3.1,6.9-6.9,6.9s-6.9-3.1-6.9-6.9c0-3.8,3.1-6.9,6.9-6.9l0,0
		C410.5,212.9,413.5,216,413.6,219.8z"/>
	<path class="st0" d="M612.1,319c0.4,0.5,4,5.1-0.1,8.7c-0.9,0.9-2.2,1.5-3.5,1.6c-2.6,0-4.6-2.9-4.6-2.9l-0.1-0.1l-0.1-0.1
		l-24.4-30.7l-3.7-4.6l-3.7,4.6c-4,4.9-15.1,18.8-21.1,26.2l-4.1,5.1l-0.1,0.1l0,0c-0.2,0.2-2.4,2.8-4.9,2.8
		c-1.2-0.1-2.3-0.5-3.1-1.3c-2.2-1.8-2.2-3.3-2.3-3.8c0.1-1.8,0.8-3.5,2-4.8l0.2-0.2l0.1-0.2c0.4-0.6,22.8-28.4,27.6-34.4l2.4-2.9
		l-2.3-3l-26.7-33.8l0,0l0,0c-0.4-0.5-4-5.1,0.1-8.7c0.9-0.9,2.2-1.5,3.5-1.6c2.6,0,4.6,2.9,4.6,2.9l0.1,0.2l0.1,0.1l24,30.4
		l3.7,4.7l3.7-4.6c1.2-1.4,3.5-4.3,3.5-4.4l20.8-26.4l0,0v-0.1c0,0,2.3-2.9,5-2.9c1.1,0.1,2.2,0.5,3.1,1.3c2.2,1.8,2.3,3.3,2.3,3.8
		c0,1.8-0.7,3.5-1.9,4.9l-0.2-0.2l-0.1,0.1l-27,34.1l-2.3,2.9l2.3,2.9L612.1,319L612.1,319z"/>
	<path class="st0" d="M382.7,322.7c0,3.1-2.5,5.6-5.6,5.6l0,0h-4.4c-14,0-25.1-4.2-33.2-12.5c-12.8-13.1-12.8-31.5-12.8-33.6v-63.6
		c-0.1-3.1,2.3-5.7,5.3-5.8c3-0.1,5.7,2.3,5.8,5.3c0,0.2,0,0.3,0,0.5v63.7c0,1,0.1,16,9.7,25.7c5.9,6,14.3,9,25.2,9h4.4
		C380.2,317.1,382.7,319.6,382.7,322.7L382.7,322.7z"/>
	<path class="st0" d="M276.9,372.9v49.5c0,3.1-2.5,5.5-5.5,5.5c-3.1,0-5.5-2.5-5.5-5.5v-49.5c0-3.1,2.5-5.5,5.5-5.5
		C274.4,367.3,276.9,369.8,276.9,372.9z"/>
	<path class="st0" d="M296.1,403.1h-49.5c-3.1,0-5.5-2.5-5.5-5.5c0-3.1,2.5-5.5,5.5-5.5l0,0h49.5c3.1,0,5.5,2.5,5.5,5.5
		S299.1,403.1,296.1,403.1z"/>
	<path class="st0" d="M276.9,479.7v49.5c0,3.1-2.5,5.5-5.5,5.5c-3.1,0-5.5-2.5-5.5-5.5v-49.5c0-3.1,2.5-5.5,5.5-5.5
		C274.4,474.1,276.9,476.6,276.9,479.7z"/>
	<path class="st0" d="M296.1,510h-49.5c-3.1,0-5.5-2.5-5.5-5.5c0-3.1,2.5-5.5,5.5-5.5l0,0h49.5c3.1,0,5.5,2.5,5.5,5.5
		S299.1,510,296.1,510z"/>
	<path class="st0" d="M443.4,388.8c0,10.4-5.7,10.7-11.8,10.7h-33.7v6.7c0,12.9,10.1,20.9,24,20.9c11.9,0,14.1-5.8,16.8-5.8
		c1.4,0.1,2.4,1.2,2.6,2.6c0,2.7-7.4,8.2-19.6,8.2c-16.8,0-28.7-10.4-28.7-25.9v-17.8c-0.1-13.9,11-25.3,25-25.5
		c13.9-0.1,25.3,11,25.5,25C443.4,388.2,443.4,388.5,443.4,388.8L443.4,388.8z M429.9,394.5c7,0,8.5-0.9,8.5-5.3
		c0-10.2-8-21-20.2-21c-11.2,0-20.2,9-20.3,20.2v6.1H429.9z"/>
	<path class="st0" d="M504.6,388.8c0,10.4-5.7,10.7-11.8,10.7h-33.7v6.7c0,12.9,10.1,20.9,24,20.9c11.9,0,14.1-5.8,16.8-5.8
		c1.4,0.1,2.4,1.2,2.6,2.6c0,2.7-7.4,8.2-19.6,8.2c-16.8,0-28.7-10.4-28.7-25.9v-17.8c-0.1-13.9,11-25.3,25-25.5
		c13.9-0.1,25.3,11,25.5,25C504.6,388.2,504.6,388.5,504.6,388.8L504.6,388.8z M491.1,394.5c7,0,8.5-0.9,8.5-5.3
		c0-10.2-8-21-20.2-21c-11.2,0-20.2,9-20.3,20.2v6.1H491.1z"/>
	<path class="st0" d="M558.3,388.1c0-11.2-8.2-19.9-18.3-19.9c-9.5,0-19.3,7.7-19.3,20.6v39.8c0,1.4-1.2,2.5-2.6,2.6
		c-1.4-0.1-2.4-1.2-2.4-2.6v-62.1c-0.1-1.3,0.9-2.4,2.2-2.4c0.1,0,0.2,0,0.2,0c1.3-0.1,2.5,1,2.6,2.3v0.1v7.5
		c3.9-6.8,11.2-11,19-10.8c9.8,0,17.6,5.8,21.3,14.2c5-9.7,13.4-14.2,21.6-14.2c11.9,0,23.3,9.2,23.3,25.6v39.8
		c0,1.4-1.1,2.5-2.5,2.5s-2.5-1.1-2.5-2.5v-39.8c0-13.6-9.7-20.6-18.5-20.6c-10.7,0.2-19.3,9-19.2,19.8v40.7c0.1,1.3-1,2.4-2.2,2.4
		c-0.1,0-0.2,0-0.3,0c-1.3,0.1-2.4-0.9-2.4-2.2c0-0.1,0-0.2,0-0.2L558.3,388.1z"/>
	<path class="st0" d="M322.7,512.5v-17.1c0-14.5,8.2-25.9,26-25.9c11.4,0,18.6,5.4,18.6,8.4c-0.1,1.3-1.2,2.4-2.6,2.4
		c-2.4,0-4.8-5.8-16.1-5.8c-13.6,0-21,8-21,20.9v17c0,12.9,7.3,20.9,21.2,20.9c11.9,0,14.4-5.8,16.9-5.8c1.3,0,2.4,1.1,2.4,2.4
		c0,3-7.4,8.4-19.5,8.4C331.1,538.4,322.7,527.2,322.7,512.5z"/>
	<path class="st0" d="M400.2,469.6c-7.8-0.2-15.1,4-19,10.8v-53.7c0-0.1,0-0.2,0-0.3v-37.9c-0.1-14.1-11.5-25.5-25.6-25.6
		c-7.8-0.2-15.1,4-19,10.8v-7.5c0-1.3-1.1-2.4-2.4-2.4h-0.1c-1.3-0.1-2.4,0.9-2.4,2.2c0,0.1,0,0.2,0,0.2v62.1c0,1.4,1.1,2.5,2.4,2.6
		c1.4,0,2.5-1.2,2.6-2.6v-39.8c0-12.9,9.8-20.6,19.5-20.6c11.1,0,20.2,10.2,20.2,20.6v39.8c0,0.2,0,0.4,0,0.6v106
		c0,1.4,1.1,2.5,2.4,2.6c1.4,0,2.5-1.2,2.6-2.6v-39.8c0-12.9,9.8-20.6,19.5-20.6c11.1,0,20.2,10.2,20.2,20.6v39.8
		c-0.1,1.3,1,2.5,2.3,2.6h0.1c1.4,0.1,2.5-1,2.6-2.4c0-0.1,0-0.1,0-0.2v-39.8C425.8,481,414.3,469.6,400.2,469.6z"/>
	<path class="st0" d="M481.4,496.9V535c0.1,1.3-1,2.5-2.3,2.6H479c-1.4,0-2.6-1.1-2.6-2.5l0,0v-7.4c-4.8,5.5-11.9,10.8-21.3,10.8
		c-11.1,0-19.8-6-19.8-18.8c0-15.1,13.4-18.8,33.1-18.8h8v-4c0-10.7-5.3-22.3-18.8-22.3c-8.8,0-13.1,3.8-14.8,3.8s-2.6-1.9-2.6-2.8
		c0-2.7,9-6,17.6-6C475.4,469.6,481.4,482.8,481.4,496.9z M476.4,505.9h-7.8c-14.6,0-28.3,1.4-28.3,13.8c0,9.5,6.4,13.8,14.6,13.8
		c10.7,0,21.5-9.5,21.5-15.6V505.9z"/>
	<path class="st0" d="M536,495.2v17.3c0,13.5-9.8,25.9-23.3,25.9s-23.1-12.2-23.1-25.9v-17.3c0-13.6,9.3-25.6,23.1-25.6
		C526.3,469.6,536,481.1,536,495.2z M531,495.2c0-10.4-6.9-20.6-18.3-20.6s-18.1,10.2-18.1,20.6v17.3c0,10.7,6.9,20.9,18.1,20.9
		s18.3-10.2,18.3-20.9V495.2z"/>
	<path class="st0" d="M571.4,474.6c-10,0-19.8,7.7-19.8,20.6V535c0,1.4-1.2,2.5-2.6,2.6c-1.4-0.1-2.4-1.2-2.4-2.6v-62.1
		c-0.1-1.3,0.9-2.4,2.2-2.4c0.1,0,0.1,0,0.2,0c1.3-0.1,2.5,1,2.6,2.3v0.1v7.5c3.3-5.5,9.8-10.8,19.8-10.8h5.3
		c1.4,0.1,2.4,1.2,2.4,2.6c0,1.3-1.1,2.4-2.4,2.4H571.4z"/>
	<path class="st0" d="M668.1,364.1c-1.4,0-2.5,1.1-2.6,2.4v39.9c0,10.7-9,20.6-20.2,20.6S625,416.9,625,406.4v-20l0,0v-19.8
		c0-1.4-1.1-2.5-2.5-2.5s-2.5,1.1-2.5,2.5v39.8l0,0v74c-3.1-5.5-7.5-10.8-17-10.8c-13.9,0-23.5,11.5-23.5,25.6v17.3
		c0,13.5,9.8,25.9,23.3,25.9c8.7,0,14.2-5,17.3-10.8v7.4c0,1.4,1.2,2.5,2.6,2.6c1.4-0.1,2.4-1.2,2.4-2.6V421.3
		c4.7,6.6,12.2,10.6,20.3,10.7c13.6,0,25.2-11.9,25.2-25.6v-39.9C670.5,365.1,669.4,364.1,668.1,364.1L668.1,364.1z M620.1,517.8
		c0,4.8-6.3,15.6-17.6,15.6c-10.8,0-18-10.2-18-20.9v-17.3c0-10.4,7.1-20.6,18.1-20.6c9.7,0,17.4,7.7,17.4,20.6L620.1,517.8z"/>
	<path class="st0" d="M650.2,451.1c0,2.5-2,4.5-4.5,4.5s-4.5-2-4.5-4.5s2-4.5,4.5-4.5C648.1,446.6,650.2,448.6,650.2,451.1z"/>
	<path class="st0" d="M648.3,472.9V535c0,1.4-1.1,2.5-2.5,2.5s-2.5-1.1-2.5-2.5v-62.1c0-1.3,1-2.4,2.4-2.4c0,0,0,0,0.1,0
		c1.3-0.1,2.5,0.9,2.6,2.3C648.3,472.8,648.3,472.8,648.3,472.9z"/>
	<path class="st0" d="M664.4,512.5v-17.1c0-14.5,8.2-25.9,26-25.9c11.4,0,18.6,5.4,18.6,8.4c-0.1,1.3-1.2,2.4-2.6,2.4
		c-2.4,0-4.8-5.8-16.1-5.8c-13.6,0-21,8-21,20.9v17c0,12.9,7.3,20.9,21.2,20.9c11.9,0,14.3-5.8,16.9-5.8c1.3,0,2.4,1.1,2.4,2.4
		c0,3-7.4,8.4-19.5,8.4C672.8,538.4,664.4,527.2,664.4,512.5z"/>
</g>
</svg>
