<?xml version="1.0" encoding="utf-8"?>
<!-- Generator: Adobe Illustrator 19.0.0, SVG Export Plug-In . SVG Version: 6.00 Build 0)  -->
<svg version="1.1" id="Layer_1" xmlns="http://www.w3.org/2000/svg" xmlns:xlink="http://www.w3.org/1999/xlink" x="0px" y="0px"
	 viewBox="0 0 242.6 59.5" style="enable-background:new 0 0 242.6 59.5;" xml:space="preserve">
<style type="text/css">
	.st0{fill:url(#SVGID_1_);}
	.st1{fill:url(#SVGID_2_);}
	.st2{fill:url(#SVGID_3_);}
	.st3{fill:url(#SVGID_4_);}
	.st4{fill:url(#SVGID_5_);}
	.st5{fill:url(#SVGID_6_);}
	.st6{fill:#58595B;}
</style>
<g>
	<g>
		<linearGradient id="SVGID_1_" gradientUnits="userSpaceOnUse" x1="32.1364" y1="58.6591" x2="32.1364" y2="-3.004162e-003">
			<stop  offset="0" style="stop-color:#3CA5D5"/>
			<stop  offset="0.343" style="stop-color:#0886BC"/>
			<stop  offset="1" style="stop-color:#005C97"/>
		</linearGradient>
		<path class="st0" d="M37.4,58.7c3-2,6.4-6,5.8-13c-0.5-4.8-3.8-8-3.8-8c0.1-0.1,8.8-5.6,12.4-13.1c2.5-5.1,3.2-9,2.1-11.8
			c-0.7-1.9-2.3-3.4-4.6-4.4c-4.1-1.7-9.7-2.5-18.7-2.5c-4.4,0-8.7,0.6-12.6,1.9c-4,1.2-6.2,3-6.7,5.3c-0.6,2.8,1.4,6.3,5.9,10.4
			c3.2,2.9,8.9,6.8,13.4,9.2c5.7,3,9.9,7.2,11,11.1c0.6,2,0.6,3.7-0.1,5c-0.6,1.1-1.6,1.8-3.1,2.3c-1.2,0.3-2.5,0.5-3.9,0.5
			c0,0,0,0,0,0c-7.5,0-16.8-4.4-23.1-10.9c-4.1-4.2-13-20.4-4.1-32.6C10.7,3.1,19.7,0,30.1,0c0,0,0.4,0,1.1,0
			c3.5,0,15.3,0.4,21.5,5.1c6.1,4.6,8.4,10.2,8.2,19.4C60.5,42.5,48.4,54.8,37.4,58.7L37.4,58.7z"/>
		<linearGradient id="SVGID_2_" gradientUnits="userSpaceOnUse" x1="32.1337" y1="58.6558" x2="32.1337" y2="4.092726e-011">
			<stop  offset="0" style="stop-color:#3CA5D5"/>
			<stop  offset="0.343" style="stop-color:#0886BC"/>
			<stop  offset="1" style="stop-color:#005C97"/>
		</linearGradient>
		<path class="st1" d="M37.4,58.7c1.8-1.2,6.6-4.9,5.8-13c-0.5-4.8-3.8-8-3.8-8s8.7-5.5,12.4-13.1c3-6.2,4.7-13.2-2.5-16.2
			c-4.5-1.9-10.5-2.5-18.7-2.5c-4.8,0-9.1,0.7-12.6,1.9c-8.3,2.6-9.6,7.8-0.8,15.8c3.2,2.9,8.8,6.7,13.4,9.2
			c5.9,3.1,9.9,7.2,11,11.1c1,3.2,0.4,6.2-3.2,7.2c-6.9,2-19-2.1-27-10.4C6.6,35.7-1.5,19.8,7.2,7.9C10.9,2.8,20.5,0,30.1,0
			c0,0,15.2-0.5,22.6,5.1c6.7,5.1,8.4,11.1,8.2,19.4C60.5,42.8,47.9,55,37.4,58.7z"/>
		<linearGradient id="SVGID_3_" gradientUnits="userSpaceOnUse" x1="-2.971411e-003" y1="29.7734" x2="41.9258" y2="29.7734">
			<stop  offset="0" style="stop-color:#3CA5D5"/>
			<stop  offset="0.343" style="stop-color:#0886BC"/>
			<stop  offset="1" style="stop-color:#005C97"/>
		</linearGradient>
		<path class="st2" d="M29.6,59.5c-5.2,0-11-2.6-17.4-7.6C6.6,47.4,0.3,36.4,0,24.9c-0.2-7.7,2.3-14.1,7.3-18.5
			C13.9,0.5,25.9,0,29.4,0c0.5,0,0.7,0,0.7,0C19.7,0,10.7,3.2,7.1,8c-8.5,11.5-0.6,27.7,4.1,32.6c6.4,6.5,15.6,10.8,23,10.8
			c1.4,0,2.7-0.2,3.9-0.5c3.6-1,3.8-3.7,3.7-4.5c0.3,3.4-0.9,6.9-3.2,9.3C37.1,57.5,34.2,59.5,29.6,59.5z"/>
		<linearGradient id="SVGID_4_" gradientUnits="userSpaceOnUse" x1="0" y1="29.7732" x2="41.9275" y2="29.7732">
			<stop  offset="0" style="stop-color:#3CA5D5"/>
			<stop  offset="0.343" style="stop-color:#0886BC"/>
			<stop  offset="1" style="stop-color:#005C97"/>
		</linearGradient>
		<path class="st3" d="M30.1,0C20.4,0,10.9,2.9,7.1,8c-8.6,11.6-0.4,27.9,4.1,32.6c8.1,8.2,19.8,12.3,26.9,10.4
			c3.3-0.9,3.8-3.3,3.7-4.5c0.7,9.5-10.1,21-29.7,5.5c-10.1-8-19-33-5-45.5C15-0.5,30.1,0,30.1,0z"/>
		<linearGradient id="SVGID_5_" gradientUnits="userSpaceOnUse" x1="26.8067" y1="12.7518" x2="50.7191" y2="26.5576">
			<stop  offset="0" style="stop-color:#3CA5D5"/>
			<stop  offset="0.343" style="stop-color:#0886BC"/>
			<stop  offset="1" style="stop-color:#005C97"/>
		</linearGradient>
		<path class="st4" d="M39,37.2c-3.1-3.1-6.4-4.9-6.5-5c0.1-0.1,9.3-4.9,15.1-11.2c2-2.2,4.2-5.3,3.4-8.2c-0.6-2.1-2.7-3.8-6.3-5
			c-6-2-12.6-2-13.8-2l-0.1,0c0,0,0.4,0,1.1,0C35.5,5.8,44.2,6,48.9,8c1.4,0.6,4.1,1.8,5.2,4.8c1.1,3.1,0.2,7.3-2.7,12.6
			c-3.7,6.8-11.9,12.1-12,12.2l0,0L39,37.2z"/>
		<linearGradient id="SVGID_6_" gradientUnits="userSpaceOnUse" x1="26.8043" y1="12.7534" x2="50.7155" y2="26.5585">
			<stop  offset="0" style="stop-color:#3CA5D5"/>
			<stop  offset="0.343" style="stop-color:#0886BC"/>
			<stop  offset="1" style="stop-color:#005C97"/>
		</linearGradient>
		<path class="st5" d="M39,37.2c-3.1-3.1-6.5-5-6.5-5s9.3-4.8,15.1-11.2c4-4.4,6.5-10.2-2.9-13.2c-6.6-2.1-14-2-14-2S43,5.5,48.9,8
			c3,1.3,9.5,4.4,2.5,17.4c-3.7,6.9-12,12.1-12,12.1L39,37.2z"/>
	</g>
	<path class="st6" d="M192.8,45.2c-5.9,0-9.1-3-9.2-8.6l0-21.2l4.4,0l0,20.9c0.1,4.2,1.5,6,4.9,6.1h4.9l0,2.9H192.8z M161.1,45.2
		l0-20.9c0-2.9,0.8-5.2,2.4-6.7c1.5-1.5,3.9-2.2,6.9-2.3l0.4,0c3,0,5.3,0.9,6.8,2.6c1.6,1.7,2.3,4.2,2.3,7.5c0,3.3-0.8,5.8-2.3,7.5
		c-1.6,1.7-3.9,2.6-6.9,2.6h-5.1l0,9.7H161.1z M170.3,18.3c-0.1,0-0.2,0-0.3,0l-0.1,0c-2.9,0.3-4.2,2-4.4,5.7v8.7l5,0
		c3.4-0.1,4.9-2.2,5-7.2c-0.1-4.8-1.4-6.9-4.4-7.2C171,18.3,170.4,18.3,170.3,18.3z M107.6,45.2c-3.1,0-5.4-0.8-7-2.2
		c-1.6-1.5-2.4-3.7-2.4-6.7v-12c0-3,0.8-5.2,2.4-6.7c1.5-1.5,3.8-2.2,6.8-2.2h0.4c3,0,5.2,0.8,6.8,2.2c1.6,1.5,2.4,3.7,2.4,6.6v12
		c0,2.9-0.8,5.2-2.4,6.7C113,44.5,110.7,45.2,107.6,45.2z M107.6,18.3c-3.5,0.1-4.9,1.8-5,6.1v12c0.1,4.2,1.5,6,5,6.1
		c3.4-0.1,4.9-1.8,5-6.1v-12C112.5,20.1,111.1,18.4,107.6,18.3L107.6,18.3z M238.2,45.2l0-20.9c-0.1-4.2-1.5-6-4.9-6.1
		c-3.4,0.1-4.8,1.8-4.9,6v20.9l-4.4,0l0-20.9c0-2.9,0.8-5.2,2.3-6.7c1.5-1.5,3.8-2.2,6.7-2.3l0.4,0c2.9,0,5.2,0.8,6.7,2.3
		c1.6,1.5,2.4,3.7,2.4,6.6l-0.1,0l0.1,0l0,20.9H238.2z M215.8,45.2l0-9.7l-10,0l0,9.7l-4.4,0l0-20.9c0-2.9,0.8-5.2,2.4-6.6
		c1.6-1.5,3.9-2.2,7-2.2c3.1,0,5.4,0.8,7,2.2c1.6,1.5,2.4,3.7,2.4,6.6v20.9H215.8z M210.8,18.3c-3.5,0.1-4.9,1.8-5,6v8.4l10,0l0-8.4
		C215.7,20.1,214.2,18.4,210.8,18.3L210.8,18.3z M147.1,45.2l0-26.9l-7.1,0l0-2.8l18.7,0l0,2.8l-7.2,0l0,26.9H147.1z M120.7,45.2
		l0-21.2c0.1-5.5,3.3-8.6,9.1-8.6h7.3l0,2.8l-6.5,0l-0.6,0c-3.5,0.1-4.9,1.8-5,6v4.5l8.1,0l0,2.8l-8.1,0l0,13.6H120.7z M85.2,45.2
		c-3.1,0-5.4-0.6-6.9-1.7c-1.6-1.2-2.4-3-2.4-5.3v-0.6l4.4,0l0,0.6c0.1,2.9,1.5,4.1,5,4.2c3.5-0.1,4.9-1.3,5-4.4
		c0-2.4-2.1-4.6-6.2-6.4c-5.4-2.4-8.1-5.3-8.1-8.8c0-2.4,0.8-4.3,2.4-5.5c1.6-1.2,3.8-1.8,6.8-1.8h0.4c3,0,5.2,0.6,6.7,1.7
		c1.6,1.2,2.4,3,2.4,5.3v0.6l-4.4,0l0-0.6c-0.1-2.9-1.5-4.1-5-4.2c-3.5,0.1-4.9,1.3-5,4.5c0,2.4,2.1,4.5,6.2,6.4
		c5.4,2.4,8.1,5.4,8.1,8.8c0,2.4-0.8,4.3-2.4,5.5C90.5,44.6,88.2,45.2,85.2,45.2z"/>
	<path class="st6" d="M193.5,42.4h-0.6c0,0-0.1,0-0.1,0c-3.4-0.1-4.8-1.8-4.9-6.1V15.4h-4.4v21.2l0,0c0.1,5.5,3.4,8.6,9.2,8.5h0l0,0
		h5v-2.8L193.5,42.4L193.5,42.4z M129.9,15.4C129.9,15.4,129.9,15.4,129.9,15.4c-5.8,0-9.1,3-9.2,8.6l0,0v21.2h4.4V31.6h8.1v-2.8
		h-8.1v-4.5c0.1-4.3,1.5-6,4.9-6.1v0h0.1h0.6v0h6.5v-2.8H129.9z M170.5,32.7h-5V24c0.2-3.8,1.5-5.4,4.4-5.7c0,0,0,0,0.1,0
		c0.1,0,0.3,0,0.4,0c0,0,0,0,0,0c0,0,0,0,0,0l0.4,0l0.2,0c3,0.3,4.4,2.3,4.4,7.2C175.4,30.6,173.8,32.7,170.5,32.7 M170.7,15.4
		L170.7,15.4h-0.2h0c0,0-0.1,0-0.1,0h-0.1c-3,0-5.3,0.7-6.9,2.3c-1.6,1.5-2.3,3.8-2.3,6.6v0v20.9h4.4v-9.7l5.1,0l0,0
		c3,0,5.3-0.8,6.9-2.6c1.6-1.7,2.3-4.3,2.3-7.5c0-3.2-0.7-5.8-2.3-7.5C175.9,16.3,173.6,15.5,170.7,15.4 M242.6,24.3
		c0-2.8-0.8-5.1-2.4-6.6c-1.6-1.5-3.8-2.2-6.7-2.3v0h-0.4v0c-2.9,0-5.2,0.8-6.7,2.3c-1.6,1.5-2.3,3.8-2.3,6.6v0c0,0,0,0,0,0l0,20.9
		h4.4V24.3c0.1-4.3,1.5-6,4.9-6c3.4,0.1,4.8,1.8,4.9,6.1l0,20.9h4.4V24.3h-0.1H242.6z M215.8,32.7h-10v-8.4c0.1-4.3,1.6-5.9,5-6
		c3.4,0.1,4.9,1.8,5,6.1L215.8,32.7z M217.8,17.7c-1.6-1.5-4-2.2-7-2.2h0h0c-3,0-5.4,0.7-7,2.2c-1.6,1.5-2.4,3.8-2.4,6.6
		c0,0,0,0,0,0v20.9h4.4v-9.7h10v9.7h0.4l0,0h4V24.3l-0.1,0h0.1C220.1,21.5,219.4,19.2,217.8,17.7 M139.9,18.3h7.1v26.9h4.4V18.3h7.2
		v-2.8h-18.7V18.3z M112.6,36.3c-0.1,4.3-1.6,6-5,6.1c-3.5-0.1-4.9-1.8-5-6.1v-12c0.1-4.3,1.6-6,5-6.1c3.4,0.1,4.9,1.8,5,6.1V36.3z
		 M107.8,15.4h-0.4c-2.9,0-5.2,0.8-6.8,2.2c-1.6,1.5-2.4,3.8-2.4,6.7c0,0,0,0,0,0v12c0,0,0,0,0,0c0,2.9,0.8,5.1,2.4,6.7
		c1.6,1.5,4,2.2,7,2.2c3,0,5.4-0.7,7-2.2c1.6-1.5,2.4-3.8,2.4-6.7v0v-12v0c0-2.8-0.8-5.1-2.4-6.6C113,16.2,110.7,15.5,107.8,15.4
		 M92.1,17.2c-1.6-1.2-3.8-1.7-6.7-1.7H85c-2.9,0-5.2,0.6-6.8,1.8c-1.6,1.2-2.4,3.1-2.4,5.5v0c0,3.5,2.9,6.4,8.1,8.7
		c4.3,1.9,6.2,4.1,6.2,6.4l0,0c-0.1,3.1-1.4,4.4-5,4.4c-3.6-0.1-4.9-1.3-5-4.2v-0.6h-4.4v0.6v0c0,2.3,0.8,4.1,2.4,5.3
		c1.6,1.2,3.9,1.7,6.9,1.7c3,0,5.3-0.6,6.9-1.8c1.6-1.2,2.4-3.1,2.4-5.5v0c0-3.5-2.9-6.4-8.1-8.8c-4.3-1.9-6.3-4.1-6.2-6.4v0
		c0.1-3.1,1.4-4.4,5-4.5c3.5,0.1,4.9,1.3,5,4.2v0.6h4.4v-0.6v0C94.5,20.2,93.7,18.4,92.1,17.2"/>
</g>
</svg>
