<svg id="Layer_1" xmlns="http://www.w3.org/2000/svg" viewBox="0 0 899.088 212.166"><style>.Drop_x0020_Shadow,.Outer_x0020_Glow_x0020_5_x0020_pt{fill:none}.Blue_x0020_Neon{fill:none;stroke:#8aacda;stroke-width:7;stroke-linecap:round;stroke-linejoin:round}.Chrome_x0020_Highlight{fill:url(#SVGID_1_);stroke:#fff;stroke-width:.3629;stroke-miterlimit:1}.Jive_GS{fill:#fd0}.Alyssa_GS{fill:#a6d0e4}.st0,.st1{fill-rule:evenodd;clip-rule:evenodd;fill:#449ad5}.st1{fill:#3c67ae}.st2{fill:#bcc3e4}.st3{fill:#b2d1ec}.st4{fill:#7db1e0}.st5{fill:#859ed1}.st6{fill:#8eacdb}.st7{fill:#5da5da}.st8{fill:#5c96d0}.st9{fill:#fff}</style><switch><g><linearGradient id="SVGID_1_" gradientUnits="userSpaceOnUse" x1="-24" y1="-191" x2="-24" y2="-192"><stop offset="0" stop-color="#656565"/><stop offset=".618" stop-color="#1b1b1b"/><stop offset=".629" stop-color="#545454"/><stop offset=".983" stop-color="#3e3e3e"/></linearGradient><g id="XMLID_21_"><path id="XMLID_83_" class="st0" d="M326.065 172.029c0 .644-.022 1.208-.064 1.707-.041.48-.103.918-.208 1.271-.103.375-.229.71-.395.98-.167.292-.458.647-.855 1.042-.417.416-1.271 1.021-2.565 1.854-1.311.834-2.916 1.668-4.854 2.459-1.94.791-4.148 1.46-6.649 2.001-2.501.563-5.252.833-8.211.833-5.147 0-9.773-.855-13.9-2.563-4.126-1.71-7.647-4.23-10.566-7.565-2.896-3.356-5.147-7.461-6.71-12.379-1.563-4.898-2.354-10.544-2.354-16.943 0-6.543.855-12.379 2.542-17.525 1.688-5.127 4.064-9.461 7.106-13.026 3.063-3.562 6.71-6.271 10.961-8.148 4.252-1.875 8.961-2.813 14.13-2.813 2.292 0 4.501.208 6.669.645 2.146.418 4.147.96 5.98 1.606 1.834.666 3.459 1.416 4.877 2.271 1.416.855 2.418 1.563 2.959 2.105.542.542.917.958 1.063 1.25.167.292.312.626.395 1.002.105.395.188.853.25 1.374.063.542.105 1.166.105 1.896 0 .813-.042 1.501-.125 2.085a5.97 5.97 0 0 1-.375 1.438c-.168.374-.355.666-.585.855-.228.167-.5.27-.812.27-.583 0-1.376-.395-2.398-1.188-1-.791-2.313-1.666-3.938-2.626-1.605-.958-3.542-1.833-5.857-2.626-2.292-.791-5.042-1.187-8.273-1.187-3.501 0-6.688.687-9.544 2.105-2.876 1.396-5.334 3.459-7.356 6.189-2.042 2.731-3.626 6.065-4.731 9.983-1.125 3.917-1.688 8.419-1.688 13.462 0 5.002.542 9.441 1.626 13.275 1.063 3.856 2.626 7.065 4.625 9.648 2.022 2.584 4.502 4.544 7.42 5.857 2.938 1.333 6.252 1.999 9.961 1.999 3.126 0 5.877-.395 8.211-1.166 2.333-.77 4.334-1.646 5.98-2.604 1.646-.96 3.001-1.813 4.062-2.584 1.063-.772 1.898-1.166 2.501-1.166.293 0 .521.062.73.187.208.125.375.355.5.709.104.332.21.812.271 1.437.067.604.089 1.376.089 2.314zm63.851-18.444c0 4.481-.583 8.608-1.772 12.359-1.166 3.771-2.939 7.023-5.272 9.752-2.334 2.73-5.272 4.856-8.794 6.377-3.523 1.521-7.607 2.293-12.234 2.293-4.521 0-8.46-.688-11.816-2.021-3.354-1.335-6.169-3.294-8.398-5.857s-3.896-5.689-5.001-9.357c-1.104-3.647-1.646-7.815-1.646-12.442 0-4.481.583-8.607 1.729-12.357 1.166-3.773 2.918-7.023 5.251-9.753 2.334-2.731 5.272-4.835 8.774-6.335 3.501-1.521 7.585-2.272 12.252-2.272 4.522 0 8.461.668 11.817 2.021 3.354 1.335 6.169 3.294 8.398 5.857 2.251 2.563 3.917 5.689 5.044 9.336 1.127 3.667 1.668 7.793 1.668 12.399zm-10.608.668c0-2.959-.291-5.774-.833-8.42-.542-2.647-1.46-4.96-2.71-6.96-1.271-2.001-2.98-3.564-5.127-4.731-2.166-1.168-4.854-1.752-8.064-1.752-2.98 0-5.522.542-7.668 1.605a13.854 13.854 0 0 0-5.272 4.481c-1.397 1.938-2.418 4.231-3.085 6.877-.666 2.648-1 5.523-1 8.67 0 3.001.27 5.835.812 8.481s1.46 4.961 2.751 6.919c1.271 1.981 3.001 3.544 5.147 4.71 2.168 1.166 4.855 1.73 8.065 1.73 2.939 0 5.482-.522 7.628-1.585 2.166-1.061 3.938-2.542 5.314-4.459 1.396-1.896 2.417-4.189 3.062-6.835.647-2.647.98-5.544.98-8.731zm106.949 27.424c0 .313-.083.605-.229.813-.167.229-.438.417-.791.583-.377.167-.876.292-1.543.375-.646.083-1.459.125-2.437.125-1.022 0-1.855-.041-2.501-.125-.647-.083-1.168-.208-1.563-.375-.375-.167-.647-.355-.813-.583-.167-.208-.25-.5-.25-.813v-33.406c0-2.313-.208-4.439-.605-6.335-.417-1.918-1.063-3.563-1.958-4.961-.896-1.374-2.043-2.438-3.418-3.167-1.377-.728-3.023-1.103-4.877-1.103-2.335 0-4.669.896-7.002 2.688-2.335 1.793-4.919 4.419-7.712 7.877v38.408c0 .313-.083.605-.25.813-.167.229-.437.417-.833.583-.375.167-.896.292-1.541.375-.668.083-1.482.125-2.46.125-.938 0-1.729-.041-2.396-.125-.688-.083-1.209-.208-1.605-.375-.375-.167-.647-.355-.793-.583a1.617 1.617 0 0 1-.208-.813v-33.406c0-2.313-.23-4.439-.666-6.335-.458-1.918-1.127-3.563-2.022-4.961-.896-1.374-2.021-2.438-3.376-3.167-1.376-.728-2.981-1.103-4.855-1.103-2.335 0-4.669.896-7.024 2.688-2.354 1.793-4.938 4.419-7.69 7.877v38.408c0 .313-.083.605-.25.813-.167.229-.438.417-.791.583-.375.167-.876.292-1.521.375-.668.083-1.501.125-2.523.125-.958 0-1.771-.041-2.437-.125-.647-.083-1.166-.208-1.541-.375-.397-.167-.668-.355-.793-.583-.145-.208-.229-.5-.229-.813v-54.954c0-.333.062-.605.187-.833.125-.208.377-.416.73-.605.375-.187.833-.292 1.416-.353a20.76 20.76 0 0 1 2.251-.105c.896 0 1.647.042 2.231.105.583.062 1.041.167 1.375.353.311.188.563.397.708.605.125.229.208.5.208.833v7.273c3.085-3.459 6.085-6.001 9.003-7.606 2.917-1.605 5.855-2.418 8.814-2.418 2.293 0 4.335.272 6.148.793 1.813.542 3.396 1.27 4.792 2.229a15.274 15.274 0 0 1 3.544 3.418 20.67 20.67 0 0 1 2.437 4.439c1.833-2.001 3.562-3.689 5.209-5.064 1.647-1.397 3.251-2.523 4.772-3.376 1.521-.855 3.001-1.459 4.461-1.856a16.395 16.395 0 0 1 4.355-.583c3.542 0 6.522.626 8.92 1.876 2.396 1.23 4.334 2.896 5.835 4.96 1.48 2.083 2.541 4.521 3.166 7.293.625 2.793.938 5.73.938 8.837v34.737h.003zm68.937-28.342c0 4.814-.52 9.128-1.563 12.942-1.021 3.834-2.563 7.085-4.564 9.753a20.787 20.787 0 0 1-7.481 6.169c-2.98 1.438-6.377 2.167-10.211 2.167-1.625 0-3.126-.168-4.5-.501-1.397-.312-2.751-.833-4.064-1.52-1.335-.688-2.646-1.563-3.939-2.626a57.167 57.167 0 0 1-4.147-3.731v27.487c0 .314-.083.605-.25.855-.167.228-.438.438-.792.605-.375.167-.875.292-1.521.375-.666.062-1.5.103-2.521.103-.96 0-1.771-.042-2.44-.103-.645-.083-1.166-.208-1.541-.375-.396-.167-.666-.377-.791-.605a1.69 1.69 0 0 1-.23-.855v-76.752c0-.375.062-.667.188-.875.125-.23.374-.417.729-.583.375-.167.833-.272 1.417-.333.563-.063 1.25-.105 2.063-.105.855 0 1.563.042 2.104.105.563.062 1.021.167 1.375.333.376.167.626.353.771.583.146.208.208.5.208.875v7.398c1.668-1.73 3.272-3.209 4.835-4.459 1.541-1.271 3.085-2.313 4.667-3.148 1.563-.833 3.168-1.479 4.815-1.896 1.646-.437 3.396-.647 5.231-.647 3.979 0 7.376.771 10.189 2.335 2.814 1.543 5.085 3.647 6.857 6.335 1.771 2.688 3.064 5.814 3.875 9.378.836 3.564 1.231 7.335 1.231 11.316zm-10.627 1.168c0-2.815-.208-5.524-.625-8.15-.439-2.625-1.168-4.959-2.21-7.001-1.041-2.022-2.437-3.646-4.189-4.876-1.751-1.209-3.917-1.834-6.522-1.834-1.313 0-2.584.188-3.856.583-1.251.397-2.542 1.002-3.836 1.835-1.311.833-2.666 1.938-4.104 3.292-1.418 1.374-2.917 3.043-4.502 5.044v21.86c2.751 3.376 5.377 5.961 7.878 7.754 2.479 1.791 5.084 2.687 7.815 2.687 2.521 0 4.689-.625 6.502-1.834 1.793-1.23 3.271-2.854 4.397-4.897 1.105-2.021 1.938-4.314 2.459-6.835.542-2.523.793-5.066.793-7.628zm72.832 27.174c0 .313-.061.605-.208.813-.145.229-.395.417-.77.583-.355.167-.835.292-1.438.375-.583.083-1.313.125-2.168.125-.938 0-1.688-.041-2.293-.125-.583-.083-1.041-.208-1.396-.375-.353-.167-.583-.355-.708-.583-.105-.208-.167-.5-.167-.813v-7.274c-3.146 3.461-6.23 5.982-9.295 7.565-3.042 1.605-6.148 2.398-9.274 2.398-3.667 0-6.752-.626-9.253-1.834-2.499-1.23-4.52-2.876-6.064-4.98-1.563-2.105-2.668-4.542-3.334-7.337-.666-2.771-1-6.167-1-10.147v-33.344c0-.333.062-.605.208-.833.145-.208.416-.416.812-.605.418-.187.938-.292 1.606-.353a25.408 25.408 0 0 1 2.438-.105c.98 0 1.791.042 2.437.105.647.062 1.168.167 1.563.353.375.188.647.397.813.605.167.229.25.5.25.833v31.989c0 3.209.229 5.794.708 7.731.458 1.938 1.168 3.584 2.126 4.939a9.811 9.811 0 0 0 3.626 3.167c1.479.772 3.187 1.146 5.147 1.146 2.521 0 5.022-.896 7.523-2.687 2.521-1.793 5.169-4.419 7.981-7.878v-38.408c0-.333.062-.605.208-.833.146-.208.416-.416.833-.605.396-.187.918-.292 1.543-.353.625-.063 1.46-.105 2.48-.105.98 0 1.793.042 2.437.105.647.062 1.168.167 1.521.353.375.188.647.397.835.605.187.229.27.5.27.833v54.954h.003zm47.181-4.043c0 1.188-.083 2.126-.23 2.812-.165.689-.416 1.21-.748 1.521-.313.334-.814.647-1.459.918-.647.292-1.396.52-2.229.708-.835.187-1.71.333-2.648.458-.937.125-1.875.187-2.813.187-2.854 0-5.294-.375-7.335-1.125-2.023-.77-3.689-1.896-5.002-3.417-1.291-1.541-2.251-3.46-2.834-5.814-.583-2.335-.875-5.085-.875-8.273v-32.114h-7.712c-.603 0-1.083-.313-1.458-.98-.374-.647-.542-1.708-.542-3.167 0-.772.042-1.417.145-1.958.105-.521.23-.96.396-1.314.167-.331.375-.583.647-.728.27-.146.562-.208.875-.208h7.649v-13.067c0-.292.061-.542.208-.791.147-.25.397-.458.792-.647.374-.188.896-.311 1.563-.395.647-.083 1.46-.125 2.44-.125 1.019 0 1.854.041 2.499.125.646.084 1.168.207 1.521.395.375.188.627.397.791.647.168.25.251.5.251.791v13.067h14.108c.312 0 .603.062.853.208.23.145.458.397.627.728.187.355.334.793.395 1.314.083.542.125 1.187.125 1.958 0 1.459-.167 2.521-.542 3.167-.375.667-.855.98-1.458.98h-14.108v30.655c0 3.794.562 6.648 1.666 8.586 1.125 1.918 3.126 2.896 6.022 2.896.938 0 1.773-.103 2.501-.27.73-.188 1.396-.396 1.96-.583a18.993 18.993 0 0 0 1.46-.585c.416-.187.77-.27 1.103-.27.208 0 .397.042.583.145.188.105.313.291.418.585.103.292.208.667.27 1.145.083.502.125 1.105.125 1.835zm53.204 4.106c0 .478-.167.853-.5 1.083-.313.25-.771.438-1.335.563-.583.125-1.416.187-2.501.187-1.061 0-1.916-.062-2.541-.187-.626-.125-1.085-.313-1.377-.563-.292-.23-.416-.605-.416-1.083v-5.502c-2.418 2.563-5.085 4.564-8.043 5.981a21.302 21.302 0 0 1-9.358 2.147c-2.898 0-5.522-.374-7.856-1.146-2.335-.749-4.336-1.834-5.98-3.251a14.949 14.949 0 0 1-3.856-5.253c-.896-2.084-1.355-4.439-1.355-7.085 0-3.106.625-5.773 1.876-8.065 1.27-2.272 3.083-4.167 5.439-5.668 2.355-1.521 5.25-2.646 8.67-3.398 3.416-.75 7.272-1.125 11.544-1.125h7.565v-4.272c0-2.124-.23-4.001-.667-5.627-.458-1.625-1.168-2.98-2.167-4.043-1-1.083-2.292-1.896-3.876-2.459-1.584-.542-3.542-.812-5.857-.812-2.499 0-4.709.292-6.688.875-1.98.605-3.709 1.25-5.189 1.958-1.501.71-2.731 1.355-3.731 1.959-1 .583-1.73.875-2.229.875-.314 0-.605-.083-.855-.229-.25-.167-.458-.416-.647-.75a4.079 4.079 0 0 1-.395-1.251c-.083-.5-.125-1.064-.125-1.667 0-1.021.083-1.834.229-2.418.146-.583.48-1.146 1.043-1.688.542-.521 1.479-1.146 2.834-1.854 1.333-.71 2.875-1.355 4.625-1.959 1.75-.583 3.668-1.063 5.752-1.46a33.432 33.432 0 0 1 6.293-.583c3.939 0 7.294.458 10.066 1.355 2.771.896 5 2.209 6.71 3.939 1.708 1.73 2.959 3.876 3.729 6.44.771 2.563 1.168 5.542 1.168 8.96v37.076h.001zm-10.024-25.091h-8.607c-2.771 0-5.169.228-7.211.686-2.021.48-3.709 1.168-5.064 2.085-1.333.917-2.333 2.021-2.958 3.292-.626 1.293-.938 2.751-.938 4.419 0 2.854.895 5.126 2.71 6.814 1.813 1.688 4.354 2.543 7.607 2.543 2.646 0 5.084-.667 7.355-2.022 2.251-1.333 4.627-3.398 7.106-6.169v-11.648zm68.02 16.649c0 .71-.021 1.293-.063 1.815-.042.5-.125.937-.208 1.27a4.075 4.075 0 0 1-.375.918c-.145.271-.458.667-.98 1.166-.5.5-1.397 1.168-2.688 1.959-1.272.792-2.876 1.541-4.793 2.25-1.918.71-4.064 1.21-6.461 1.502l1.584 3.542c.855 1.834 1.479 3.334 1.854 4.544.397 1.208.583 2.333.583 3.396 0 1.543-.292 2.917-.855 4.147a8.353 8.353 0 0 1-2.438 3.085c-1.063.833-2.313 1.479-3.792 1.918-1.46.458-3.106.667-4.939.667-1.396 0-2.709-.083-4.002-.272-1.291-.187-2.374-.375-3.291-.583-.918-.188-1.543-.375-1.898-.542-.353-.167-.583-.375-.728-.605a2.782 2.782 0 0 1-.313-.916c-.063-.375-.083-.855-.083-1.48 0-1.251.125-2.104.396-2.521.27-.438.708-.646 1.312-.646h7.566c1.311 0 2.313-.272 3.063-.813.729-.562 1.083-1.375 1.083-2.479 0-.542-.125-1.188-.353-1.98a25.356 25.356 0 0 0-.98-2.543l-2.876-6.357c-4.148-.77-7.607-2.396-10.378-4.895-2.773-2.523-4.836-5.773-6.232-9.816-1.375-4.022-2.063-8.753-2.063-14.15 0-5.419.646-10.066 1.98-13.964 1.313-3.876 3.126-7.065 5.439-9.544 2.293-2.479 5.002-4.334 8.108-5.522 3.126-1.208 6.48-1.813 10.106-1.813 1.751 0 3.459.167 5.105.5a27.27 27.27 0 0 1 4.544 1.271c1.374.521 2.626 1.146 3.689 1.833 1.083.688 1.875 1.273 2.355 1.773.5.478.833.875 1 1.166.188.272.355.605.458 1 .125.396.208.813.25 1.313.041.48.063 1.104.063 1.834 0 1.583-.188 2.688-.542 3.313-.377.647-.813.96-1.356.96-.603 0-1.311-.333-2.104-1.001-.791-.687-1.791-1.416-3.021-2.229-1.208-.813-2.689-1.563-4.418-2.229-1.73-.689-3.773-1.022-6.148-1.022-4.834 0-8.544 1.876-11.127 5.585-2.584 3.731-3.878 9.128-3.878 16.213 0 3.542.335 6.648 1.002 9.316.666 2.666 1.666 4.897 2.959 6.688 1.311 1.793 2.896 3.126 4.792 4.001 1.896.876 4.064 1.313 6.502 1.313 2.314 0 4.355-.375 6.105-1.103 1.751-.729 3.272-1.543 4.544-2.417 1.292-.876 2.376-1.668 3.251-2.376.876-.708 1.541-1.063 2.043-1.063.27 0 .52.083.729.23.208.167.375.437.52.833.146.397.23.875.291 1.458.066.603.107 1.291.107 2.102zm53.725 8.442c0 .478-.167.853-.5 1.083-.311.25-.771.438-1.333.563-.585.125-1.418.187-2.501.187-1.063 0-1.918-.062-2.542-.187-.625-.125-1.083-.313-1.377-.563-.29-.23-.416-.605-.416-1.083v-5.502c-2.416 2.563-5.084 4.564-8.043 5.981a21.302 21.302 0 0 1-9.358 2.147c-2.896 0-5.523-.374-7.856-1.146-2.333-.749-4.334-1.834-5.981-3.251a14.958 14.958 0 0 1-3.855-5.253c-.896-2.084-1.355-4.439-1.355-7.085 0-3.106.627-5.773 1.876-8.065 1.271-2.272 3.084-4.167 5.439-5.668 2.355-1.521 5.252-2.646 8.67-3.398 3.418-.75 7.273-1.125 11.545-1.125h7.565v-4.272c0-2.124-.23-4.001-.668-5.627-.458-1.625-1.166-2.98-2.166-4.043-1.001-1.083-2.293-1.896-3.877-2.459-1.583-.542-3.542-.812-5.855-.812-2.501 0-4.709.292-6.69.875-1.98.605-3.709 1.25-5.189 1.958-1.5.71-2.73 1.355-3.73 1.959-1.001.583-1.731.875-2.231.875-.311 0-.605-.083-.853-.229-.251-.167-.458-.416-.647-.75a3.997 3.997 0 0 1-.396-1.251c-.083-.5-.125-1.064-.125-1.667 0-1.021.083-1.834.23-2.418.145-.583.48-1.146 1.042-1.688.542-.521 1.479-1.146 2.834-1.854 1.333-.71 2.876-1.355 4.625-1.959 1.752-.583 3.669-1.063 5.752-1.46a33.448 33.448 0 0 1 6.293-.583c3.939 0 7.295.458 10.066 1.355s5.002 2.209 6.71 3.939c1.71 1.73 2.959 3.876 3.731 6.44.771 2.563 1.166 5.542 1.166 8.96v37.076zm-10.023-25.091h-8.608c-2.771 0-5.167.228-7.21.686-2.021.48-3.709 1.168-5.064 2.085-1.335.917-2.334 2.021-2.959 3.292-.625 1.293-.938 2.751-.938 4.419 0 2.854.896 5.126 2.71 6.814 1.813 1.688 4.356 2.543 7.607 2.543 2.646 0 5.085-.667 7.356-2.022 2.251-1.333 4.626-3.398 7.107-6.169v-11.648h-.001zm9.584-53.682c0 4.314-1.062 7.627-3.168 9.899-2.124 2.27-4.979 3.416-8.607 3.416-1.521 0-2.854-.187-4.042-.583a13.826 13.826 0 0 1-3.229-1.5 22.33 22.33 0 0 1-2.689-1.938 39.2 39.2 0 0 0-2.418-1.959 15.526 15.526 0 0 0-2.333-1.5 5.631 5.631 0 0 0-2.501-.583c-1.646 0-2.773.603-3.418 1.77-.666 1.188-.98 2.751-.98 4.711 0 .291-.041.542-.125.771a.885.885 0 0 1-.521.5c-.27.125-.645.208-1.166.25-.5.041-1.147.062-1.918.062-.645 0-1.208-.02-1.646-.083-.458-.062-.813-.187-1.063-.375-.271-.187-.458-.437-.583-.791-.125-.355-.188-.791-.188-1.313 0-4.022 1.022-7.252 3.043-9.648 2.043-2.398 4.96-3.606 8.733-3.606 2.208 0 4.106.416 5.689 1.25 1.584.835 3.023 1.751 4.292 2.751 1.293 1.002 2.501 1.918 3.605 2.773 1.125.853 2.335 1.292 3.647 1.292 1.458 0 2.563-.542 3.313-1.626.752-1.061 1.126-2.668 1.126-4.792 0-.647.229-1.083.647-1.313.437-.208 1.353-.333 2.771-.333 1.521 0 2.521.167 3.001.458.48.31.728.998.728 2.04zm70.022 50.618c0 4.481-.583 8.608-1.771 12.359-1.168 3.771-2.939 7.023-5.272 9.752-2.335 2.73-5.274 4.856-8.794 6.377-3.523 1.521-7.607 2.293-12.234 2.293-4.523 0-8.46-.688-11.816-2.021-3.355-1.335-6.169-3.294-8.398-5.857s-3.897-5.689-5.002-9.357c-1.103-3.647-1.646-7.815-1.646-12.442 0-4.481.585-8.607 1.731-12.357 1.166-3.773 2.916-7.023 5.25-9.753 2.334-2.731 5.272-4.835 8.775-6.335 3.499-1.521 7.585-2.272 12.252-2.272 4.522 0 8.461.668 11.817 2.021 3.355 1.335 6.169 3.294 8.398 5.857 2.25 2.563 3.918 5.689 5.044 9.336 1.124 3.667 1.666 7.793 1.666 12.399zm-10.608.668a42.01 42.01 0 0 0-.833-8.42c-.542-2.647-1.459-4.96-2.709-6.96-1.271-2.001-2.981-3.564-5.127-4.731-2.166-1.168-4.855-1.752-8.064-1.752-2.98 0-5.523.542-7.669 1.605a13.869 13.869 0 0 0-5.272 4.481c-1.396 1.938-2.418 4.231-3.084 6.877-.668 2.648-1.002 5.523-1.002 8.67 0 3.001.272 5.835.813 8.481.542 2.646 1.46 4.961 2.751 6.919 1.271 1.981 3.001 3.544 5.147 4.71 2.167 1.166 4.855 1.73 8.064 1.73 2.939 0 5.481-.522 7.628-1.585 2.166-1.061 3.938-2.542 5.314-4.459 1.397-1.896 2.418-4.189 3.063-6.835.647-2.647.98-5.544.98-8.731z"/><path id="XMLID_78_" class="st1" d="M325.029 35.262c0 4.439-.688 8.378-2.083 11.796-1.377 3.417-3.398 6.293-6.045 8.626-2.646 2.356-5.897 4.127-9.732 5.357-3.855 1.208-8.378 1.833-13.586 1.833h-6.586V88.09c0 .397-.146.772-.396 1.083-.27.335-.708.605-1.313.793-.625.208-1.438.375-2.458.5-1.002.125-2.314.187-3.897.187-1.543 0-2.835-.062-3.876-.187-1.043-.125-1.876-.292-2.481-.5-.603-.188-1.042-.458-1.271-.793a1.706 1.706 0 0 1-.375-1.083V17.008c0-1.896.502-3.334 1.501-4.294 1-.958 2.313-1.438 3.938-1.438h18.611c1.875 0 3.668.064 5.355.208 1.688.146 3.709.458 6.064.918 2.376.478 4.752 1.333 7.17 2.604 2.437 1.25 4.5 2.856 6.208 4.794 1.71 1.916 3.001 4.187 3.898 6.772.896 2.585 1.354 5.481 1.354 8.69zm-16.796 1.168c0-2.773-.48-5.044-1.46-6.835-.978-1.793-2.188-3.126-3.604-3.98a11.927 11.927 0 0 0-4.481-1.605 33.62 33.62 0 0 0-4.855-.334h-6.835v26.799h7.19c2.563 0 4.709-.355 6.439-1.041 1.729-.688 3.146-1.668 4.25-2.897 1.105-1.25 1.938-2.73 2.501-4.459.563-1.73.855-3.607.855-5.648zm76.064 47.554c0 1.188-.042 2.168-.147 2.959-.104.791-.25 1.438-.458 1.938-.208.48-.458.835-.772 1.064-.292.23-.646.333-1 .333h-39.679c-1.355 0-2.479-.395-3.396-1.188-.917-.791-1.377-2.083-1.377-3.875V16.342c0-1.793.46-3.085 1.377-3.878.917-.791 2.041-1.188 3.396-1.188h39.429c.375 0 .687.105.978.314.292.188.521.542.73 1.063.208.5.355 1.166.458 1.958.105.793.167 1.793.167 3.023 0 1.125-.061 2.105-.167 2.896-.103.791-.25 1.438-.458 1.918-.208.5-.438.853-.73 1.063a1.506 1.506 0 0 1-.978.334h-28.197v19.297h23.861c.375 0 .71.125 1.021.333.292.228.542.583.75 1.041.208.48.355 1.105.46 1.896.103.793.145 1.751.145 2.897 0 1.187-.041 2.166-.145 2.938-.105.771-.251 1.396-.46 1.854-.208.48-.458.813-.75 1a1.788 1.788 0 0 1-1.021.313h-23.861v22.278h28.446c.354 0 .708.123 1 .353.314.208.563.563.772 1.063.208.48.353 1.125.458 1.916.106.794.148 1.794.148 2.96zm66.747-66.121c0 1.186-.063 2.188-.168 3.021-.103.833-.25 1.521-.458 2.021-.208.5-.458.896-.749 1.125-.314.25-.647.374-1.022.374h-19.775V88.09c0 .397-.125.772-.397 1.083-.272.335-.708.605-1.313.793-.603.208-1.438.375-2.479.5-1.022.125-2.313.187-3.876.187-1.543 0-2.834-.062-3.878-.187-1.019-.125-1.854-.292-2.458-.5-.626-.188-1.063-.458-1.313-.793a1.61 1.61 0 0 1-.397-1.083V24.405h-19.797c-.395 0-.75-.125-1.022-.374-.292-.229-.542-.625-.749-1.125-.187-.5-.355-1.188-.458-2.021a32.117 32.117 0 0 1 0-6.127c.103-.855.272-1.541.458-2.043.208-.52.458-.875.749-1.103.272-.23.626-.335 1.022-.335h55.682c.375 0 .708.105 1.022.335.292.228.542.583.749 1.103.208.502.355 1.188.458 2.043.106.854.169 1.895.169 3.105z"/></g><g id="chip"><g id="XMLID_2_"><path id="XMLID_167_" class="st2" d="M216.501 86.118l-.664-5.141a53.41 53.41 0 0 0-.424-2.149l-.078-.36a50.554 50.554 0 0 0-.489-2.006c-.046-.174-.097-.343-.144-.516-.082-.297-.16-.589-.249-.891-.054-.181-.111-.348-.166-.526-.075-.243-.15-.477-.227-.718-.204-.63-.412-1.23-.627-1.818l-2.274-5.183c-2.907-4.86-8.046-12.067-16.478-18.415-8.309-6.254-16.405-8.932-21.959-10.796-5.243-1.76-9.644-2.706-13.054-3.438a151.976 151.976 0 0 0-17.868-2.742 9201.7 9201.7 0 0 1-5.217-.508l-7.892-.75c-2.324-.112-4.595-.43-6.791-.461l-12.967-.5a626.78 626.78 0 0 0-8.831-.145l-5.263-.031a80.882 80.882 0 0 0-3.683-.006c-12.644.263-22.118 3.397-24.403 4.185-12.286 4.236-20.351 10.848-24.875 14.625-10.182 8.502-15.871 17.103-19.625 22.875-1.699 2.612-6.608 10.397-11 21.5-2.053 5.19-3.212 9.131-4.375 13.125 0 0-4.991 17.111-6.375 32.875-.445 5.073-.484 9.748-.5 11.688a62.225 62.225 0 0 0 .125 4.813c.119 1.802.289 3.136.375 3.813.911 7.207.773 7.553 1.188 10.063.757 4.584 1.949 7.87 3.312 11.625 2.024 5.575 3.035 8.363 5.25 11.25 0 0 2.778 3.622 7.125 6.75.607.437 1.208.792 1.208.792s.912.538 1.917.958c8.729 3.65 22.875 6.625 22.875 6.625 6.057 1.274 9.086 1.911 12.542 2.5 7.979 1.361 14.091 1.97 15.708 2.125 6.622.636 19.07 1.739 35 .125 3.135-.318 6.649-.683 10.871-1.456.354-.065 2.538-.471 5.004-1.044 7.43-1.727 13.709-4.112 19.5-6.333 4.729-1.814 10.925-4.208 15.917-7 3.005-1.681 6.083-3.667 6.083-3.667 1.775-1.145 3.156-2.091 3.833-2.583l2.704-1.966a45.165 45.165 0 0 0 9.796-9.201 205.265 205.265 0 0 0 11.75-15.333c2.223-3.205 8.354-12.104 12.081-20.502 1.048-2.361 2.208-5.219 2.208-5.219a187.174 187.174 0 0 0 3.394-8.998l1.729-5.235a135.965 135.965 0 0 0 2.207-7.897l1.165-5.219c.166-.826.324-1.679.476-2.548.123-.705.239-1.404.345-2.096l.012-.071c.08-.524.148-1.035.218-1.547.026-.194.057-.391.082-.584.095-.732.181-1.452.258-2.158l.409-5.098a68.01 68.01 0 0 0-.169-9.457z"/><path id="XMLID_166_" class="st3" d="M249.501 57.118l-.664-5.141a53.41 53.41 0 0 0-.424-2.149l-.078-.36a50.554 50.554 0 0 0-.489-2.006c-.046-.174-.097-.343-.144-.516-.082-.297-.16-.589-.249-.891-.054-.181-.111-.348-.166-.526-.075-.243-.15-.477-.227-.718-.204-.63-.412-1.23-.627-1.818l-2.274-5.183c-2.907-4.86-8.046-12.067-16.478-18.415-8.309-6.254-16.405-8.932-21.959-10.796-5.243-1.76-9.644-2.706-13.054-3.438A151.976 151.976 0 0 0 174.8 2.419a9201.7 9201.7 0 0 1-5.217-.508l-7.892-.75c-2.324-.112-4.595-.43-6.791-.461L141.933.2a626.78 626.78 0 0 0-8.831-.145l-5.263-.031a80.882 80.882 0 0 0-3.683-.006c-12.644.263-22.118 3.397-24.403 4.185-12.286 4.236-20.351 10.848-24.875 14.625-10.182 8.502-15.871 17.103-19.625 22.875-1.699 2.612-6.608 10.397-11 21.5-2.053 5.19-3.212 9.131-4.375 13.125 0 0-4.991 17.111-6.375 32.875-.445 5.073-.484 9.748-.5 11.688a62.225 62.225 0 0 0 .125 4.813c.119 1.802.289 3.136.375 3.813.911 7.207.773 7.553 1.188 10.063.757 4.584 1.949 7.87 3.313 11.625 2.024 5.575 3.035 8.363 5.25 11.25 0 0 2.778 3.622 7.125 6.75.607.437 1.208.792 1.208.792s.912.538 1.917.958c8.729 3.65 22.875 6.625 22.875 6.625 6.057 1.274 9.086 1.911 12.542 2.5 7.979 1.361 14.091 1.97 15.708 2.125 6.622.636 19.07 1.739 35 .125 3.135-.318 6.649-.683 10.871-1.456.354-.065 2.538-.471 5.004-1.044 7.43-1.727 13.709-4.112 19.5-6.333 4.729-1.814 10.925-4.208 15.917-7 3.005-1.681 6.083-3.667 6.083-3.667 1.775-1.145 3.156-2.091 3.833-2.583l2.704-1.966a45.165 45.165 0 0 0 9.796-9.201 205.265 205.265 0 0 0 11.75-15.333c2.223-3.205 8.354-12.104 12.081-20.502 1.048-2.361 2.208-5.219 2.208-5.219a187.174 187.174 0 0 0 3.394-8.998l1.729-5.235a135.965 135.965 0 0 0 2.207-7.897l1.165-5.219c.166-.826.324-1.679.476-2.548.123-.705.239-1.404.345-2.096l.012-.071c.08-.524.148-1.035.218-1.547.026-.194.057-.391.082-.584.095-.732.181-1.452.258-2.158l.409-5.098a68.01 68.01 0 0 0-.17-9.457z"/><path id="XMLID_160_" class="st4" d="M262.501 85.118l-.664-5.141a53.41 53.41 0 0 0-.424-2.149l-.078-.36a50.554 50.554 0 0 0-.489-2.006c-.046-.174-.097-.343-.144-.516-.082-.297-.16-.589-.249-.891-.054-.181-.111-.348-.166-.526-.075-.243-.15-.477-.227-.718-.204-.63-.412-1.23-.627-1.818l-2.274-5.183c-2.907-4.86-8.046-12.067-16.478-18.415-8.309-6.254-16.405-8.932-21.959-10.796-5.243-1.76-9.644-2.706-13.054-3.438a151.976 151.976 0 0 0-17.868-2.742 9201.7 9201.7 0 0 1-5.217-.508l-7.892-.75c-2.324-.112-4.595-.43-6.791-.461l-12.967-.5a626.78 626.78 0 0 0-8.831-.145l-5.263-.031a80.882 80.882 0 0 0-3.683-.006c-12.644.263-22.118 3.397-24.403 4.185-12.286 4.236-20.351 10.848-24.875 14.625-10.182 8.502-15.871 17.103-19.625 22.875-1.699 2.612-6.608 10.397-11 21.5-2.053 5.19-3.212 9.131-4.375 13.125 0 0-4.991 17.111-6.375 32.875-.445 5.073-.484 9.748-.5 11.688a62.225 62.225 0 0 0 .125 4.813c.119 1.802.289 3.136.375 3.813.911 7.207.773 7.553 1.188 10.063.757 4.584 1.949 7.87 3.313 11.625 2.024 5.575 3.035 8.363 5.25 11.25 0 0 2.778 3.622 7.125 6.75.607.437 1.208.792 1.208.792s.912.538 1.917.958c8.729 3.65 22.875 6.625 22.875 6.625 6.057 1.274 9.086 1.911 12.542 2.5 7.979 1.361 14.091 1.97 15.708 2.125 6.622.636 19.07 1.739 35 .125 3.135-.318 6.649-.683 10.871-1.456.354-.065 2.538-.471 5.004-1.044 1.979-.46 8.858-2.132 19.5-6.333 7.649-3.02 14.113-5.611 22-10.667a88.413 88.413 0 0 0 3.833-2.583c8.762-6.255 14.221-12.76 18.038-17.37 0 0 11.124-13.434 18.292-29.633 1.079-2.438 2.208-5.219 2.208-5.219a187.174 187.174 0 0 0 3.394-8.998l1.729-5.235a135.965 135.965 0 0 0 2.207-7.897l1.165-5.219c.166-.826.324-1.679.476-2.548.123-.705.239-1.404.345-2.096l.012-.071c.08-.524.148-1.035.218-1.547.026-.194.057-.391.082-.584.095-.732.181-1.452.258-2.158l.409-5.098a68.01 68.01 0 0 0-.169-9.456z"/><path id="XMLID_191_" class="st5" d="M215.838 80.977a53.41 53.41 0 0 0-.424-2.149l-.078-.36a50.554 50.554 0 0 0-.489-2.006c-.046-.174-.097-.343-.144-.516-.082-.297-.16-.589-.249-.891-.054-.181-.111-.348-.166-.526-.075-.243-.15-.477-.227-.718-.204-.63-.412-1.23-.627-1.818l-2.274-5.183c-2.907-4.86-8.046-12.067-16.478-18.415-8.309-6.254-16.405-8.932-21.959-10.796-5.243-1.76-9.644-2.706-13.054-3.438a152.007 152.007 0 0 0-17.868-2.742 9201.7 9201.7 0 0 1-5.217-.508l-7.892-.75c-2.324-.112-4.595-.43-6.791-.461l-12.968-.5a626.78 626.78 0 0 0-8.831-.145l-5.263-.031a80.882 80.882 0 0 0-3.683-.006c-12.644.263-22.118 3.397-24.403 4.185a69.847 69.847 0 0 0-8.048 3.356 172.275 172.275 0 0 0-3.452 5.144c-1.699 2.612-6.608 10.397-11 21.5-2.053 5.19-3.212 9.131-4.375 13.125 0 0-4.991 17.111-6.375 32.875-.445 5.073-.484 9.748-.5 11.688a62.225 62.225 0 0 0 .125 4.813c.119 1.802.289 3.136.375 3.813.911 7.207.773 7.553 1.188 10.063.757 4.584 1.949 7.87 3.313 11.625 2.024 5.575 3.035 8.363 5.25 11.25 0 0 2.778 3.622 7.125 6.75.607.437 1.208.792 1.208.792s.912.538 1.917.958c8.729 3.65 22.875 6.625 22.875 6.625 6.057 1.274 9.086 1.911 12.542 2.5 7.979 1.361 14.091 1.97 15.708 2.125 6.622.636 19.07 1.739 35 .125 3.135-.318 6.649-.683 10.871-1.456.354-.065 2.538-.471 5.004-1.044 7.43-1.727 13.709-4.112 19.5-6.333 3.985-1.528 9.005-3.473 13.475-5.716a201.848 201.848 0 0 0 3.608-5.034c2.223-3.205 8.354-12.104 12.081-20.502 1.048-2.361 2.208-5.219 2.208-5.219a187.174 187.174 0 0 0 3.394-8.998l1.729-5.235a135.965 135.965 0 0 0 2.207-7.897l1.165-5.219c.166-.826.324-1.679.476-2.548.123-.705.239-1.404.345-2.096l.012-.071c.08-.524.148-1.035.218-1.547.026-.194.057-.391.082-.584.095-.732.181-1.452.258-2.158l.409-5.098a68.01 68.01 0 0 0-.168-9.453l-.665-5.145z"/><path id="XMLID_192_" class="st6" d="M216.75 90.849a68.58 68.58 0 0 0-.248-4.732l-.664-5.141a53.41 53.41 0 0 0-.424-2.149l-.078-.36a50.554 50.554 0 0 0-.489-2.006c-.046-.174-.097-.343-.144-.516-.082-.297-.16-.589-.249-.891-.054-.181-.111-.348-.166-.526-.075-.243-.15-.477-.227-.718-.204-.63-.412-1.23-.627-1.818l-2.274-5.183c-2.907-4.86-8.046-12.067-16.478-18.415-8.309-6.254-16.405-8.932-21.959-10.796-5.243-1.76-9.644-2.706-13.054-3.438a152.007 152.007 0 0 0-17.868-2.742 9201.7 9201.7 0 0 1-5.217-.508l-7.892-.75c-2.265-.109-4.479-.41-6.622-.454-4.764.97-8.088 2.071-9.317 2.495-12.286 4.236-20.351 10.848-24.875 14.625-10.182 8.504-15.871 17.105-19.625 22.877-1.699 2.612-6.608 10.397-11 21.5-2.053 5.19-3.212 9.131-4.375 13.125 0 0-4.991 17.111-6.375 32.875-.445 5.073-.484 9.748-.5 11.688a62.225 62.225 0 0 0 .125 4.813c.119 1.802.289 3.136.375 3.813.911 7.207.773 7.553 1.188 10.063.757 4.584 1.949 7.87 3.313 11.625 2.024 5.575 3.035 8.363 5.25 11.25 0 0 2.778 3.622 7.125 6.75.607.437 1.208.792 1.208.792s.912.538 1.917.958c8.729 3.65 22.875 6.625 22.875 6.625 6.057 1.274 9.086 1.911 12.542 2.5a228.183 228.183 0 0 0 14.425 1.996c.381-.065.762-.13 1.155-.202.354-.065 2.538-.471 5.004-1.044 7.43-1.727 13.709-4.112 19.5-6.333 4.729-1.814 10.925-4.208 15.917-7 3.005-1.681 6.083-3.667 6.083-3.667 1.775-1.145 3.156-2.091 3.833-2.583l2.703-1.966a45.048 45.048 0 0 0 9.797-9.201 205.265 205.265 0 0 0 11.75-15.333c2.223-3.205 8.354-12.104 12.081-20.502 1.048-2.361 2.208-5.219 2.208-5.219a187.174 187.174 0 0 0 3.394-8.998l1.729-5.235a135.965 135.965 0 0 0 2.207-7.897l1.165-5.219c.166-.826.324-1.679.476-2.548.123-.705.239-1.404.345-2.096l.012-.071c.08-.524.148-1.035.218-1.547.026-.194.057-.391.082-.584.095-.732.181-1.452.258-2.158l.409-5.098c.074-1.481.107-3.058.078-4.726z"/><path id="XMLID_196_" class="st7" d="M240.682 47.395c-8.309-6.254-16.405-8.932-21.959-10.796-5.243-1.76-9.644-2.706-13.054-3.438a152.007 152.007 0 0 0-17.868-2.742 9201.7 9201.7 0 0 1-5.217-.508l-7.892-.75c-2.324-.112-4.595-.43-6.791-.461l-12.968-.5a626.78 626.78 0 0 0-8.831-.145l-5.263-.031a80.882 80.882 0 0 0-3.683-.006c-12.644.263-22.118 3.397-24.403 4.185-12.286 4.236-20.351 10.848-24.875 14.625-10.182 8.502-15.871 17.103-19.625 22.875-1.699 2.612-6.608 10.397-11 21.5-2.053 5.19-3.212 9.131-4.375 13.125 0 0-4.991 17.111-6.375 32.875-.445 5.073-.484 9.748-.5 11.688a62.225 62.225 0 0 0 .125 4.813c.119 1.802.289 3.136.375 3.813.832 6.582.79 7.445 1.092 9.457a35.627 35.627 0 0 0 2.783 2.231c.607.437 1.208.792 1.208.792s.912.538 1.917.958c8.729 3.65 22.875 6.625 22.875 6.625 6.057 1.274 9.086 1.911 12.542 2.5 7.979 1.361 14.091 1.97 15.708 2.125 6.622.636 19.07 1.739 35 .125 3.135-.318 6.649-.683 10.871-1.456.354-.065 2.538-.471 5.004-1.044 7.43-1.727 13.709-4.112 19.5-6.333 4.729-1.814 10.925-4.208 15.917-7 3.005-1.681 6.083-3.667 6.083-3.667 1.775-1.145 3.156-2.091 3.833-2.583l2.703-1.966a45.048 45.048 0 0 0 9.797-9.201 205.265 205.265 0 0 0 11.75-15.333c2.223-3.205 8.354-12.104 12.081-20.502 1.048-2.361 2.208-5.219 2.208-5.219a187.174 187.174 0 0 0 3.394-8.998l1.729-5.235a135.965 135.965 0 0 0 2.207-7.897l1.165-5.219c.166-.826.324-1.679.476-2.548.123-.705.239-1.404.345-2.096l.012-.071c.08-.524.148-1.035.218-1.547.026-.194.057-.391.082-.584.095-.732.181-1.452.258-2.158l.409-5.098a68.01 68.01 0 0 0-.168-9.453l-.249-1.929a62.732 62.732 0 0 0-8.571-7.798z"/><path id="XMLID_198_" class="st8" d="M211.498 122.789a135.965 135.965 0 0 0 2.207-7.897l1.165-5.219c.166-.826.324-1.679.476-2.548.123-.705.239-1.404.345-2.096l.012-.071c.08-.524.148-1.035.218-1.547.026-.194.057-.391.082-.584.095-.732.181-1.452.258-2.158l.409-5.098a68.01 68.01 0 0 0-.168-9.453l-.664-5.141a53.41 53.41 0 0 0-.424-2.149l-.078-.36a50.554 50.554 0 0 0-.489-2.006c-.046-.174-.097-.343-.144-.516-.082-.297-.16-.589-.249-.891-.054-.181-.111-.348-.166-.526-.075-.243-.15-.477-.227-.718-.204-.63-.412-1.23-.627-1.818l-2.274-5.183c-2.907-4.86-8.046-12.067-16.478-18.415-8.309-6.254-16.405-8.932-21.959-10.796-5.243-1.76-9.644-2.706-13.054-3.438a152.007 152.007 0 0 0-17.868-2.742 9201.7 9201.7 0 0 1-5.217-.508l-7.892-.75c-2.265-.109-4.479-.41-6.622-.454-4.157.846-7.215 1.792-8.744 2.301l-.018.006c-.216.072-.402.135-.555.188-12.286 4.236-20.351 10.848-24.875 14.625-10.182 8.503-15.871 17.104-19.625 22.876-1.699 2.612-6.608 10.397-11 21.5-2.053 5.19-3.212 9.131-4.375 13.125 0 0-4.991 17.111-6.375 32.875-.445 5.073-.484 9.748-.5 11.688a62.225 62.225 0 0 0 .125 4.813c.119 1.802.289 3.136.375 3.813l.151 1.214.05.414a174.063 174.063 0 0 1 .122 1.011l.08.675.029.25.07.609.024.216.063.574c.004.04.211.079.215.118.241 2.231-.308 3.064.692 4.373v.03h-.202c.412 0 .749.722 1.208 1.093.012.009-.026.012-.014.021.457.368.91.731 1.412 1.092.607.437 1.196.79 1.196.79s.906.538 1.91.958c8.729 3.65 22.872 6.625 22.872 6.625 6.057 1.274 9.084 1.91 12.54 2.5 7.979 1.361 14.091 1.969 15.708 2.125 6.622.636 19.07 1.739 35 .125 3.135-.318 6.649-.683 10.871-1.456.354-.065 2.538-.471 5.004-1.044 7.43-1.727 13.709-4.112 19.5-6.333l1.596-.614c.329-.127.67-.261 1.009-.393l.676-.264c.424-.167.855-.338 1.289-.512l.426-.171c.486-.196.975-.395 1.468-.599l.219-.091c2.272-.943 4.598-1.971 6.792-3.073a210.081 210.081 0 0 0 2.08-2.866c.533-.747 1.049-1.477 1.528-2.167 2.223-3.205 8.354-12.104 12.081-20.502 1.048-2.361 2.208-5.219 2.208-5.219a187.174 187.174 0 0 0 3.394-8.998c.575-1.749 1.152-3.494 1.728-5.239z"/></g><g id="XMLID_1_"><path id="XMLID_163_" class="st9" d="M175.425 46.537h-84.85c-8.868 0-16.123 7.255-16.123 16.123v84.825c0 8.868 7.255 16.123 16.123 16.123h84.85c8.868 0 16.123-7.255 16.123-16.123V62.66c0-8.868-7.256-16.123-16.123-16.123zM98.734 72.302a5.146 5.146 0 1 1 0-10.292 5.146 5.146 0 0 1 0 10.292zm61.549 58.384H106.3V76.192h53.983v54.494z"/><path id="XMLID_150_" class="st9" d="M62.056 100.674H46.429a2.616 2.616 0 0 1-2.608-2.608 2.616 2.616 0 0 1 2.608-2.608h15.627a2.616 2.616 0 0 1 2.608 2.608 2.615 2.615 0 0 1-2.608 2.608z"/><path id="XMLID_148_" class="st9" d="M62.056 86.171H46.429a2.616 2.616 0 0 1-2.608-2.608 2.616 2.616 0 0 1 2.608-2.608h15.627a2.616 2.616 0 0 1 2.608 2.608 2.616 2.616 0 0 1-2.608 2.608z"/><path id="XMLID_149_" class="st9" d="M62.056 71.946H46.429a2.616 2.616 0 0 1-2.608-2.608 2.616 2.616 0 0 1 2.608-2.608h15.627a2.616 2.616 0 0 1 2.608 2.608 2.616 2.616 0 0 1-2.608 2.608z"/><path id="XMLID_151_" class="st9" d="M62.056 114.878H46.429a2.616 2.616 0 0 1-2.608-2.608 2.616 2.616 0 0 1 2.608-2.608h15.627a2.616 2.616 0 0 1 2.608 2.608 2.615 2.615 0 0 1-2.608 2.608z"/><path id="XMLID_152_" class="st9" d="M62.056 127.993H46.429a2.616 2.616 0 0 1-2.608-2.608 2.616 2.616 0 0 1 2.608-2.608h15.627a2.616 2.616 0 0 1 2.608 2.608 2.616 2.616 0 0 1-2.608 2.608z"/><path id="XMLID_153_" class="st9" d="M62.056 142.228H46.429a2.616 2.616 0 0 1-2.608-2.608 2.616 2.616 0 0 1 2.608-2.608h15.627a2.616 2.616 0 0 1 2.608 2.608 2.615 2.615 0 0 1-2.608 2.608z"/><path id="XMLID_154_" class="st9" d="M216.263 142.228h-15.627a2.616 2.616 0 0 1-2.608-2.608 2.616 2.616 0 0 1 2.608-2.608h15.627a2.616 2.616 0 0 1 2.608 2.608 2.615 2.615 0 0 1-2.608 2.608z"/><path id="XMLID_157_" class="st9" d="M216.263 128.002h-15.627a2.616 2.616 0 0 1-2.608-2.608 2.616 2.616 0 0 1 2.608-2.608h15.627a2.616 2.616 0 0 1 2.608 2.608 2.615 2.615 0 0 1-2.608 2.608z"/><path id="XMLID_168_" class="st9" d="M216.263 114.878h-15.627a2.616 2.616 0 0 1-2.608-2.608 2.616 2.616 0 0 1 2.608-2.608h15.627a2.616 2.616 0 0 1 2.608 2.608 2.615 2.615 0 0 1-2.608 2.608z"/><path id="XMLID_169_" class="st9" d="M216.263 100.674h-15.627a2.616 2.616 0 0 1-2.608-2.608 2.616 2.616 0 0 1 2.608-2.608h15.627a2.616 2.616 0 0 1 2.608 2.608 2.615 2.615 0 0 1-2.608 2.608z"/><path id="XMLID_170_" class="st9" d="M216.263 86.171h-15.627a2.616 2.616 0 0 1-2.608-2.608 2.616 2.616 0 0 1 2.608-2.608h15.627a2.616 2.616 0 0 1 2.608 2.608 2.614 2.614 0 0 1-2.608 2.608z"/><path id="XMLID_171_" class="st9" d="M216.263 71.946h-15.627a2.616 2.616 0 0 1-2.608-2.608 2.616 2.616 0 0 1 2.608-2.608h15.627a2.616 2.616 0 0 1 2.608 2.608 2.614 2.614 0 0 1-2.608 2.608z"/><path id="XMLID_172_" class="st9" d="M100.543 21.554v15.627a2.616 2.616 0 0 1-2.608 2.608 2.616 2.616 0 0 1-2.608-2.608V21.554a2.616 2.616 0 0 1 2.608-2.608 2.616 2.616 0 0 1 2.608 2.608z"/><path id="XMLID_173_" class="st9" d="M114.76 21.554v15.627a2.616 2.616 0 0 1-2.608 2.608 2.616 2.616 0 0 1-2.608-2.608V21.554a2.616 2.616 0 0 1 2.608-2.608 2.615 2.615 0 0 1 2.608 2.608z"/><path id="XMLID_174_" class="st9" d="M127.894 21.554v15.627a2.616 2.616 0 0 1-2.608 2.608 2.616 2.616 0 0 1-2.608-2.608V21.554a2.616 2.616 0 0 1 2.608-2.608 2.616 2.616 0 0 1 2.608 2.608z"/><path id="XMLID_175_" class="st9" d="M142.111 21.554v15.627a2.616 2.616 0 0 1-2.608 2.608 2.616 2.616 0 0 1-2.608-2.608V21.554a2.616 2.616 0 0 1 2.608-2.608 2.616 2.616 0 0 1 2.608 2.608z"/><path id="XMLID_176_" class="st9" d="M156.606 21.554v15.627a2.616 2.616 0 0 1-2.608 2.608 2.616 2.616 0 0 1-2.608-2.608V21.554a2.616 2.616 0 0 1 2.608-2.608 2.615 2.615 0 0 1 2.608 2.608z"/><path id="XMLID_177_" class="st9" d="M170.824 21.554v15.627a2.616 2.616 0 0 1-2.608 2.608 2.616 2.616 0 0 1-2.608-2.608V21.554a2.616 2.616 0 0 1 2.608-2.608 2.616 2.616 0 0 1 2.608 2.608z"/><path id="XMLID_183_" class="st9" d="M100.544 175.77v15.627a2.616 2.616 0 0 1-2.608 2.608 2.616 2.616 0 0 1-2.608-2.608V175.77a2.616 2.616 0 0 1 2.608-2.608 2.616 2.616 0 0 1 2.608 2.608z"/><path id="XMLID_182_" class="st9" d="M114.762 175.77v15.627a2.616 2.616 0 0 1-2.608 2.608 2.616 2.616 0 0 1-2.608-2.608V175.77a2.616 2.616 0 0 1 2.608-2.608 2.616 2.616 0 0 1 2.608 2.608z"/><path id="XMLID_181_" class="st9" d="M127.895 175.77v15.627a2.616 2.616 0 0 1-2.608 2.608 2.616 2.616 0 0 1-2.608-2.608V175.77a2.616 2.616 0 0 1 2.608-2.608 2.615 2.615 0 0 1 2.608 2.608z"/><path id="XMLID_180_" class="st9" d="M142.112 175.77v15.627a2.616 2.616 0 0 1-2.608 2.608 2.616 2.616 0 0 1-2.608-2.608V175.77a2.616 2.616 0 0 1 2.608-2.608 2.615 2.615 0 0 1 2.608 2.608z"/><path id="XMLID_179_" class="st9" d="M156.608 175.77v15.627a2.616 2.616 0 0 1-2.608 2.608 2.616 2.616 0 0 1-2.608-2.608V175.77a2.616 2.616 0 0 1 2.608-2.608 2.616 2.616 0 0 1 2.608 2.608z"/><path id="XMLID_178_" class="st9" d="M170.825 175.77v15.627a2.616 2.616 0 0 1-2.608 2.608 2.616 2.616 0 0 1-2.608-2.608V175.77a2.616 2.616 0 0 1 2.608-2.608 2.616 2.616 0 0 1 2.608 2.608z"/></g></g></g></switch></svg>