<svg id="Layer_1" xmlns="http://www.w3.org/2000/svg" viewBox="0 0 960 560"><style>.Drop_x0020_Shadow,.Outer_x0020_Glow_x0020_5_x0020_pt{fill:none}.Jive_GS{fill:#a6d0e4}.st0{fill-rule:evenodd;clip-rule:evenodd;fill:#020307}</style><switch><g><g id="XMLID_53_"><path id="XMLID_94_" class="st0" d="M219.797 325.522c0-21.01 26.397-15.622 50.102-15.622h47.407c8.081 0 9.158 0 14.545-2.694 0 8.619.539 14.007.539 22.625 0 8.081-6.464 18.318-14.007 18.318H235.96c-4.848 0-9.159-4.848-11.314-8.081-2.694-3.771-4.849-8.619-4.849-14.546zm0 0zm-33.4-69.494h33.4c.539-10.236 9.16-17.778 19.394-17.778h76.499c10.773 0 24.242 24.782 13.467 33.4-5.925 5.388-26.397 3.233-36.634 3.233H239.19c-18.315 0-33.4 8.619-43.636 23.164-14.006 21.011-11.851 46.869 3.233 66.263 3.77 4.849 8.081 7.542 12.391 10.775 3.77 2.694 11.851 7.003 17.239 7.003h88.349c4.848 0 8.621-2.694 14.008-3.233v4.309h38.249V246.87c0-6.466-11.852-23.166-17.239-28.015-6.464-5.388-21.01-15.085-29.63-15.085h-93.198c-8.621 0-24.242 9.16-30.169 16.7-7.002 9.161-12.39 19.395-12.39 35.558z"/><path id="XMLID_91_" class="st0" d="M0 289.967c0 24.242 6.464 46.33 22.088 64.107 10.773 12.391 34.478 29.091 50.1 29.091h107.205v-33.4H80.809c-9.159 0-25.86-10.236-32.324-17.778-16.7-19.932-19.394-47.946-5.387-69.494 8.081-11.313 23.703-24.242 38.249-24.242h87.273c15.623 0 10.236 4.309 10.236-34.479H76.498c-8.619 0-22.086 5.927-30.167 10.236C21.01 228.013 0 258.183 0 289.967z"/><path id="XMLID_90_" class="st0" d="M602.828 288.889c0 16.163.539 28.014 7.543 42.559 4.309 8.08 8.62 16.7 15.084 23.704 6.464 6.464 13.469 12.93 21.549 17.239 6.466 3.771 21.011 10.773 29.63 10.773h104.512v-35.016h-95.893c-25.319 0-50.1-26.397-50.1-51.718 0-17.777 3.233-29.091 15.085-42.019 7.542-8.081 22.627-16.163 33.939-16.163h87.273c14.006 0 10.773 5.926 10.773-34.479h-99.124c-14.545 0-33.401 9.16-44.713 17.24-2.154 2.154-3.233 2.694-5.387 4.848-6.464 5.926-8.619 7.542-14.545 16.7-2.694 3.772-5.388 8.621-7.543 12.93-4.311 9.16-8.083 21.011-8.083 33.402z"/><path id="XMLID_89_" class="st0" d="M783.839 290.507c0 39.325 20.471 68.416 51.179 83.501 10.773 5.388 22.088 8.621 33.939 9.158h6.464c21.548-1.076 42.558-10.234 58.182-25.858 16.161-16.161 24.781-36.633 26.397-57.643V288.89c-1.616-18.316-8.081-37.171-21.01-53.873-9.158-11.852-28.552-25.858-45.791-30.167v36.633c31.245 16.7 40.404 59.797 15.083 88.349-6.464 7.543-22.086 17.778-35.555 17.778-19.394 0-30.706-3.77-43.636-16.7-18.855-18.855-20.47-49.563-5.925-71.112 2.155-2.694 2.692-3.231 4.309-5.386 4.849-5.388 8.08-7.542 14.007-11.314 1.616-1.616 2.154-.539 3.233-4.309 0-1.079 0-.539.537-2.155v-32.863c-17.777 8.081-28.552 12.391-42.558 31.246-10.236 13.469-18.855 32.324-18.855 55.49z"/><path id="XMLID_88_" class="st0" d="M373.873 303.435c0 23.165 8.08 39.327 21.549 55.488 4.309 4.848 16.7 12.93 22.627 16.163 8.08 3.771 19.931 8.08 31.245 8.08h102.895c2.154 0 2.694-.537 2.694-2.692 0-36.096 2.155-31.785-9.158-31.785h-85.657c-14.545 0-26.397-2.694-36.094-11.853-8.081-7.54-14.545-19.394-14.545-34.477V204.31h-35.555v99.125z"/><path id="XMLID_87_" class="st0" d="M561.348 383.165h33.939v-117.44c-7.005 0-10.236-.539-17.239-.539h-16.7v117.979z"/><path id="XMLID_75_" class="st0" d="M851.718 271.65h33.939v-91.582c0-3.771-7.542-2.155-15.623-2.155-4.309 0-4.849-.539-8.08-1.078h-10.236v94.815z"/><path id="XMLID_70_" class="st0" d="M560.27 237.173h35.017v-33.402c0-2.154-.539-2.694-2.694-2.694H560.27v36.096z"/></g></g></switch></svg>