<svg id="Layer_1" xmlns="http://www.w3.org/2000/svg" viewBox="-269 223.8 419.8 115.2"><style>.st0{fill:#15156e}.st1{fill:#4f4f8a}.st2{fill:#9f9fc3}.st3{fill:#4a4aa6}.st4{fill:#40409b}.st5{fill:#b6b6e3}.st6{fill:#8484cd}.st7{fill:#303099}.st8{fill:#7474a5}.st9{fill:#8b8bca}.st10{fill:#6f6fa8}.st11{fill:#5c5cb1}.st12{fill:#1e1e7c}.st13{fill:#252584}.st14{fill:#cecee6}.st15{fill:#c7c7e1}.st16{fill:#0a0a55}.st17{fill:#9b9bc6}</style><switch><g><g id="XMLID_43_"><g id="XMLID_11_"><g id="XMLID_19_"><path id="XMLID_22_" class="st0" d="M-101.6 283c-9.1 0-12.4-3-14-4.5-4.2-3.8-4.8-7.9-4.8-11.8v-.4h6.6v.4c0 9.2 8.5 10.2 12.1 10.2 3.5 0 11.5-.7 11.5-7.3 0-4.4-1.8-5.8-9.4-7.7l-9.3-2.2c-8.2-1.9-10-7.1-10-11.1 0-6.7 4.2-14.4 16-14.4 11.7 0 17.6 4.9 18.1 14.8v.4h-6.6v-.4c-.4-8.2-8.4-8.9-10.9-8.9-3.7 0-10 1-10 7.6 0 3.7 2.6 4.8 5.1 5.4l13 3c6.9 1.6 10.6 6 10.6 12.5.2 10.7-9.2 14.4-18 14.4z"/><path id="XMLID_21_" class="st0" d="M-102.8 234.8c15.9 0 17.5 9.5 17.7 14.5h-5.8c-.3-7-6.1-10.1-11.3-10.1-3.8 0-10.4 2-10.4 8.9 0 3.8 2.7 5.1 5.4 5.8l13 3c5.9 1.4 10.3 4.9 10.3 12.1 0 10.8-10 13.7-17.8 13.7-8.4 0-11.7-2.5-13.7-4.4-3.8-3.5-4.6-7.3-4.6-11.5h5.8c0 8.2 6.7 10.6 12.5 10.6 4.4 0 11.9-1.1 11.9-7.7 0-4.8-2.2-6.2-9.7-8l-9.3-2.2c-3-.7-9.7-2.8-9.7-10.7.1-7 4.7-14 15.7-14m0-.8c-12.1 0-16.4 8-16.4 14.8 0 4.1 1.8 9.5 10.3 11.5l9.3 2.2c7.4 1.8 9.1 3.1 9.1 7.3 0 6.2-7.8 6.9-11.1 6.9-3.5 0-11.7-.9-11.7-9.9v-.8h-7.4v.8c0 4 .6 8.2 4.9 12.1 2.5 2.2 6.1 4.6 14.3 4.6 2.7 0 7.9-.4 12.2-2.9 4.2-2.5 6.4-6.5 6.4-11.6 0-6.8-3.8-11.2-10.9-12.9l-13-3c-3.3-.8-4.8-2.3-4.8-5 0-6.2 6-7.2 9.6-7.2 2.4 0 10.1.6 10.5 8.5v.7h7.3v-.8c-.1-2.6-.6-6.4-3.2-9.6-3.1-3.8-8.2-5.7-15.4-5.7z"/></g><g id="XMLID_25_"><path id="XMLID_17_" class="st0" d="M-75.8 281.8v-46.2h33.9v6.3h-27V255H-44v6.2h-24.9v14.4h27.4v6.2z"/><path id="XMLID_16_" class="st0" d="M-42.3 236v5.5h-26.9v13.9h24.9v5.5h-24.9v15.2h27.4v5.4h-33.5V236h33m.8-.8h-34.7v47h35.1v-7.1h-27.4v-13.5h24.9v-7.1h-24.9v-12.3h26.9v-6.3l.1-.7z"/></g><g id="XMLID_27_"><path id="XMLID_14_" class="st0" d="M-15.4 283c-10.1 0-20.8-6.4-20.8-24.5 0-14.6 8.5-24 21.6-24 12.8 0 18.2 8.2 19 15.2v.4h-6.7l-.1-.3c-1.7-7.9-8.4-9.1-12.3-9.1-8.8 0-14.5 6.9-14.5 17.6 0 12.3 4.9 18.5 14.6 18.5 3.1 0 10.4-1.2 12.6-12.1l.1-.3h6.7l-.1.4c-2.4 16.9-16 18.2-20.1 18.2z"/><path id="XMLID_238_" class="st0" d="M-14.7 234.8c11.7 0 17.8 7.3 18.6 14.9H-2c-1.7-8-8.4-9.4-12.7-9.4-8.2 0-14.9 6.1-14.9 18 0 10.7 3.8 18.9 15 18.9 4 0 10.9-1.9 13-12.4h5.9c-2.5 17.1-16.4 17.9-19.9 17.9-10.3 0-20.4-6.7-20.4-24.1.1-14.1 8.1-23.8 21.3-23.8m0-.8c-6.6 0-12.2 2.4-16.1 6.9-3.8 4.4-5.8 10.4-5.8 17.6 0 18.4 11 24.9 21.2 24.9 2.2 0 6.5-.4 10.6-2.6 5.5-3.1 8.9-8.4 10-15.9l.1-.9h-7.5l-.1.6c-2.1 10.7-9.2 11.8-12.2 11.8-9.5 0-14.3-6.1-14.3-18.1 0-10.5 5.5-17.2 14.1-17.2 3.8 0 10.3 1.1 11.9 8.8l.1.6h7.4l-.1-.9c-.5-4.2-2.4-8-5.5-10.8-3.4-3.1-8.2-4.8-13.8-4.8z"/></g><g id="XMLID_139_"><path id="XMLID_227_" class="st0" d="M30.2 283c-10.1 0-20.8-6.4-20.8-24.5 0-14.6 8.5-24 21.6-24 12.8 0 18.2 8.2 19 15.2v.4h-6.7l-.1-.3c-1.7-7.9-8.4-9.1-12.3-9.1-8.8 0-14.5 6.9-14.5 17.6 0 12.3 4.9 18.5 14.6 18.5 3.1 0 10.4-1.2 12.6-12.1l.1-.3h6.7l-.1.4C48 281.7 34.3 283 30.2 283z"/><path id="XMLID_222_" class="st0" d="M31 234.8c11.7 0 17.8 7.3 18.6 14.9h-5.9c-1.7-8-8.4-9.4-12.7-9.4-8.2 0-14.9 6.1-14.9 18 0 10.7 3.8 18.9 15 18.9 4 0 10.9-1.9 13-12.4H50c-2.5 17.1-16.4 17.9-19.9 17.9-10.3 0-20.4-6.7-20.4-24.1.1-14.1 8-23.8 21.3-23.8m0-.8c-6.6 0-12.2 2.4-16.1 6.9-3.8 4.4-5.8 10.4-5.8 17.6 0 18.4 11 24.9 21.2 24.9 2.2 0 6.5-.4 10.6-2.6 5.5-3.1 8.9-8.4 10-15.9l.1-.9h-7.4l-.2.6c-2.1 10.7-9.2 11.8-12.2 11.8-9.5 0-14.3-6.1-14.3-18.1 0-10.5 5.5-17.2 14.1-17.2 3.8 0 10.3 1.1 11.9 8.8l.1.6h7.4l-.1-.9c-.5-4.2-2.4-8-5.5-10.8-3.4-3.1-8.2-4.8-13.8-4.8z"/></g><g id="XMLID_141_"><path id="XMLID_269_" class="st0" d="M77.2 283c-17.8 0-22.5-15.3-22.5-24.3s4.8-24.3 22.5-24.3 22.5 15.3 22.5 24.3S95 283 77.2 283zm0-42.3c-9.2 0-15.4 7.3-15.4 18.1s6.2 18.1 15.4 18.1 15.4-7.3 15.4-18.1-6.1-18.1-15.4-18.1z"/><path id="XMLID_252_" class="st0" d="M77.2 234.8c17 0 22.1 14.1 22.1 23.9 0 9.8-5.2 23.9-22.1 23.9-17 0-22.1-14.1-22.1-23.9 0-9.8 5.2-23.9 22.1-23.9m0 42.4c9.9 0 15.8-7.8 15.8-18.5s-5.9-18.5-15.8-18.5-15.8 7.8-15.8 18.5 6 18.5 15.8 18.5m0-43.2c-7.8 0-14 3-18.1 8.6-3.1 4.3-4.9 10.2-4.9 16.1 0 5.9 1.8 11.8 4.9 16.1 4 5.6 10.3 8.6 18.1 8.6 7.8 0 14-3 18.1-8.6 3.1-4.3 4.9-10.2 4.9-16.1 0-5.9-1.8-11.8-4.9-16.1-4-5.6-10.3-8.6-18.1-8.6zm0 42.4c-9.1 0-15-6.9-15-17.7 0-10.8 5.9-17.7 15-17.7s15 6.9 15 17.7c0 10.8-5.8 17.7-15 17.7z"/></g><g id="XMLID_168_"><path id="XMLID_220_" class="st0" d="M143.6 281.8V251.7c0-1.8.1-4.2.1-6.4l-12.2 36.5h-6.6l-12.2-36.4c0 2.2 0 4.5.1 6.3v30.1h-6.7v-46.2h9.5l12.8 37.7 12.6-37.7h9.4v46.2h-6.8z"/><path id="XMLID_216_" class="st0" d="M150 236v45.4h-6v-26.8c0-1.3.1-7.1.1-11.3h-.1l-12.8 38.1h-6.1l-12.8-38.1h-.1c0 4.2.1 9.9.1 11.3v26.8h-5.9V236h8.8l13 38.4h.1l12.9-38.4h8.8m.7-.8h-9.9l-.2.5-12.3 36.4-12.3-36.3-.2-.5h-10.1v47h7.5v-34.4l11.3 33.8.2.5h7.1l.2-.5 11.3-33.8v34.5h7.5V236l-.1-.8z"/></g></g><g id="XMLID_12_"><path id="XMLID_13_" class="st0" d="M-119.8 309.1c0-10.9 7.9-11.9 11.5-11.9 5.8 0 10.4 3.7 10.4 10 0 6-3.9 8.5-8.9 11.1l-3.5 1.9c-4.6 2.5-5.5 5.1-5.7 6.4h18.1v3.9h-22.8c.2-6.9 3.4-10.6 7.8-13.2l4.4-2.6c3.6-2 6.1-3.4 6.1-7.8 0-2.7-1.7-6-6.6-6-6.3 0-6.6 5.9-6.8 8.2h-4z"/><path id="XMLID_15_" class="st0" d="M-82.3 331.4c-9.6 0-11.4-10.2-11.4-17.1s1.9-17.1 11.4-17.1c9.6 0 11.4 10.2 11.4 17.1s-1.8 17.1-11.4 17.1zm0-30.5c-4.8 0-7 5-7 13.4s2.2 13.4 7 13.4 7-5 7-13.4c0-8.3-2.2-13.4-7-13.4z"/><path id="XMLID_18_" class="st0" d="M-52.1 330.5h-4.5v-23.6h-7.7v-3.3c5.4-.4 7.6-.9 9-6.4h3.3l-.1 33.3z"/><path id="XMLID_20_" class="st0" d="M-41 297.9h23v3.7c-3.3 3.5-11.3 14.1-13.7 29h-4.6c1.1-9.1 7.2-21.1 13.6-28.5H-41v-4.2z"/></g></g><g id="XMLID_5_"><path id="XMLID_272_" class="st1" d="M-181 335.4l11.2-6.7 6.3 9.3z"/><path id="XMLID_273_" class="st2" d="M-192.4 302.6l11.3 21.1 2.1-7.4z"/><path id="XMLID_274_" class="st3" d="M-222.6 277l6.2 16.5-1-15.4z"/><path id="XMLID_275_" class="st4" d="M-245.4 279.1l12.1 6.1 1.5-17z"/><path id="XMLID_276_" class="st5" d="M-187.7 224.3l5.6 4.1 5.3-4.6z"/><path id="XMLID_277_" class="st6" d="M-225 251.3l9 23.1 3.8-10.4z"/><path id="XMLID_278_" class="st7" d="M-233.7 309.9l2.9 3.9 4.6-15z"/><path id="XMLID_279_" class="st0" d="M-269 339l26.2-3.1 12-22.1z"/><path id="XMLID_280_" class="st1" d="M-204.5 318.8l11.7 10.6 11.7-5.7z"/><path id="XMLID_281_" class="st8" d="M-157.6 331.7l-5.9 6.3-6.3-9.3z"/><path id="XMLID_282_" class="st8" d="M-169.8 328.7l-11.2 6.7-.1-11.7z"/><path id="XMLID_283_" class="st1" d="M-151 336.2l15.9-6.8-22.5 2.3z"/><path id="XMLID_284_" class="st1" d="M-181 335.4l-.1-11.7-11.7 5.7z"/><path id="XMLID_285_" class="st2" d="M-181.1 323.7l-15-10.5-8.4 5.6z"/><path id="XMLID_286_" class="st8" d="M-197.5 311.8l4-10.8-13.9-1.5z"/><path id="XMLID_287_" class="st9" d="M-176.6 240.6l-5.4-3.3-13.5 7.5z"/><path id="XMLID_288_" class="st10" d="M-211.6 265.8l14.8-9.4 1.3-11.6z"/><path id="XMLID_289_" class="st10" d="M-211.6 265.8l-3.9 12.6 5.6 1.4z"/><path id="XMLID_290_" class="st3" d="M-224.1 292l7.7 1.5.4 6z"/><path id="XMLID_291_" class="st11" d="M-233.3 285.2l1.5-17 9.2 8.8z"/><path id="XMLID_292_" class="st6" d="M-231.8 268.2l.6-16.9h6.2z"/><path id="XMLID_293_" class="st9" d="M-225 251.3l7.3-14 15.6-8.9z"/><path id="XMLID_294_" class="st5" d="M-182.1 228.4l5.3-4.6 13 1.4z"/><path id="XMLID_295_" class="st5" d="M-198.5 237.2l-3.6-8.8h20z"/><path id="XMLID_296_" class="st5" d="M-212.2 264l-12.8-12.7 29-8.2z"/><path id="XMLID_297_" class="st12" d="M-206.5 317.8l-9.5-18.3-14.8 14.3z"/><path id="XMLID_298_" class="st13" d="M-230.8 313.8l-2.9-3.9-23.2 21.1z"/><path id="XMLID_299_" class="st9" d="M-182.1 228.4l-5.6-4.1-14.4 4.1z"/><path id="XMLID_300_" class="st14" d="M-144.2 235.9l-19.6-10.7-4.5 7.1z"/><path id="XMLID_301_" class="st14" d="M-182.1 235.4v-7l-13.9 14.7z"/><path id="XMLID_302_" class="st9" d="M-196 243.1l13.9-14.7-42.9 22.9z"/><path id="XMLID_303_" class="st9" d="M-225 251.3l7.3-14-13.5 14z"/><path id="XMLID_304_" class="st11" d="M-231.8 268.2l.6-16.9-9.2 14.9z"/><path id="XMLID_305_" class="st12" d="M-224.1 292l1.5-15-10.7 8.2z"/><path id="XMLID_306_" class="st4" d="M-231.8 268.2l-8.6-2-5 12.9z"/><path id="XMLID_307_" class="st6" d="M-222.6 277l-2.4-25.7-6.8 16.9z"/><path id="XMLID_308_" class="st14" d="M-168.3 233.9l21.4 2.8-18.7 2.5z"/><path id="XMLID_309_" class="st15" d="M-196.8 256.4l7-5.1-8.3 17.5z"/><path id="XMLID_311_" class="st8" d="M-181.1 323.7l-11.3-21.1-3.7 10.6z"/><path id="XMLID_312_" class="st15" d="M-198.1 268.8l-11.8 11 9.5 7.8z"/><path id="XMLID_313_" class="st3" d="M-216 299.5l-8.1-7.5-6.7 21.8z"/><path id="XMLID_314_" class="st16" d="M-206.5 317.8l-24.3-4-12 22.1z"/><path id="XMLID_321_" class="st14" d="M-176.6 240.6l11-1.4-19.2 8.1z"/><path id="XMLID_322_" class="st7" d="M-216.4 293.5l-6.2-16.5-1.5 15z"/><path id="XMLID_323_" class="st4" d="M-222.6 277l6.6-2.6-1.4 3.7z"/><path id="XMLID_324_" class="st5" d="M-182.1 235.4v-7l13.8 3.9z"/><path id="XMLID_325_" class="st14" d="M-163.8 225.2l-18.3 3.2 13.8 3.9z"/><path id="XMLID_326_" class="st11" d="M-225 251.3l9 23.1-6.6 2.6z"/><path id="XMLID_327_" class="st8" d="M-208.8 288.5l8.4-.9-7 11.9z"/><path id="XMLID_328_" class="st2" d="M-207.4 299.5l7-11.9 6.9 13.4z"/><path id="XMLID_329_" class="st8" d="M-207.4 299.5l9.9 12.3-7.8 5.2z"/><path id="XMLID_330_" class="st1" d="M-214.3 299.5h6.9l2.1 17.5z"/><path id="XMLID_331_" class="st1" d="M-215.5 278.4l5.6 1.4-5.1 7.2z"/><path id="XMLID_332_" class="st1" d="M-215 287l7.6 12.5h-6.9z"/><path id="XMLID_366_" class="st5" d="M-198.5 237.2l-3.6-8.8-22.9 22.9z"/><path id="XMLID_367_" class="st17" d="M-205.7 268.1l-4.2 11.7 11.8-11z"/><path id="XMLID_368_" class="st8" d="M-208.8 288.5l-6.2-1.5 7.6 12.5z"/><path id="XMLID_369_" class="st5" d="M-189.8 251.3l13.2-10.7-18.9 4.2z"/><path id="XMLID_370_" class="st17" d="M-205.7 268.1l-5.9-2.3 1.7 14z"/><path id="XMLID_371_" class="st17" d="M-196.8 256.4l-14.8 9.4 5.9 2.3z"/><path id="XMLID_372_" class="st17" d="M-198.1 268.8l-7.6-.7 8.9-11.7z"/><path id="XMLID_373_" class="st5" d="M-196.8 256.4l1.3-11.6 5.7 6.5z"/><path id="XMLID_374_" class="st9" d="M-176.6 240.6l-5.4-3.3 13.7-3.4z"/><path id="XMLID_375_" class="st2" d="M-179 316.3l-2.1 7.4 9.5-3z"/><path id="XMLID_376_" class="st8" d="M-215 287l5.1-7.2 1.1 8.7z"/><path id="XMLID_377_" class="st8" d="M-209.9 279.8l9.5 7.8-8.4.9z"/><path id="XMLID_379_" class="st1" d="M-163.5 338l12.5-1.8-6.6-4.5z"/><path id="XMLID_380_" class="st2" d="M-157.6 331.7l22.5-2.3-20.9-3.1z"/><path id="XMLID_381_" class="st2" d="M-156 326.3l-1.6 5.4-14-11z"/><path id="XMLID_382_" class="st2" d="M-157.6 331.7l-12.2-3-1.8-8z"/><path id="XMLID_385_" class="st5" d="M-168.3 233.9l2.7 5.3-11 1.4z"/><path id="XMLID_310_" class="st8" d="M-171.6 320.7l1.8 8-11.3-5z"/></g></g></switch></svg>