<svg xmlns="http://www.w3.org/2000/svg" width="185" height="188" viewBox="0 0 185 188"><path d="M115.912 17.967c0 2.676-.731 4.738-2.193 6.186-1.462 1.448-3.518 2.171-6.166 2.171h-5.148V10.29h5.507c2.554 0 4.526.658 5.916 1.974 1.389 1.316 2.084 3.217 2.084 5.703zm-4.462.154c0-1.469-.289-2.559-.866-3.268-.577-.709-1.453-1.064-2.628-1.064h-1.251v8.982h.958c1.306 0 2.264-.382 2.874-1.146s.913-1.932.913-3.504zm11.679 8.423c-2.053 0-3.646-.55-4.783-1.65-1.136-1.101-1.704-2.667-1.704-4.7 0-2.099.526-3.709 1.578-4.832 1.053-1.122 2.555-1.684 4.506-1.684 1.857 0 3.293.488 4.305 1.464s1.52 2.382 1.52 4.217v1.908h-7.609c.029.695.281 1.239.758 1.634.475.395 1.121.592 1.941.592.748 0 1.436-.071 2.063-.214.629-.143 1.309-.386 2.041-.729v3.082a7.478 7.478 0 0 1-2.068.713c-.712.133-1.56.199-2.548.199zm-.25-9.948c-.5 0-.92.159-1.256.477-.338.318-.537.817-.594 1.497h3.656c-.014-.599-.184-1.078-.506-1.437s-.755-.537-1.3-.537zm9.972 9.729l-4.702-12.426h4.44l2.09 7.348c.008.037.022.099.044.187s.043.192.065.313c.021.121.041.249.06.384.018.136.027.262.027.378h.076c0-.38.065-.793.195-1.239l2.188-7.37h4.43l-4.702 12.426h-4.211zm13.53 0h-4.234V10.29h9.404v3.477h-5.17v3.06h4.767v3.477h-4.767v6.021zm12.147.219c-2.054 0-3.647-.55-4.783-1.65s-1.703-2.667-1.703-4.7c0-2.099.525-3.709 1.578-4.832 1.052-1.122 2.554-1.684 4.506-1.684 1.857 0 3.292.488 4.305 1.464 1.012.976 1.519 2.382 1.519 4.217v1.908h-7.608c.029.695.281 1.239.757 1.634.475.395 1.122.592 1.942.592.747 0 1.435-.071 2.063-.214s1.308-.386 2.041-.729v3.082a7.478 7.478 0 0 1-2.068.713c-.713.133-1.561.199-2.549.199zm-.25-9.948c-.501 0-.92.159-1.257.477-.338.318-.536.817-.594 1.497h3.657c-.015-.599-.184-1.078-.506-1.437-.322-.358-.756-.537-1.3-.537zm16.263 5.912c0 1.331-.45 2.336-1.35 3.016-.9.68-2.191 1.02-3.875 1.02-.914 0-1.709-.049-2.384-.148s-1.364-.28-2.067-.543V22.42c.66.292 1.384.534 2.171.724.787.19 1.489.285 2.106.285.921 0 1.382-.212 1.382-.636 0-.219-.129-.415-.386-.586-.258-.172-1.007-.506-2.248-1.004-1.132-.468-1.923-1-2.373-1.596-.449-.596-.675-1.351-.675-2.265 0-1.155.442-2.055 1.328-2.698.885-.644 2.137-.965 3.755-.965.813 0 1.576.09 2.291.269s1.457.44 2.227.784l-1.154 2.764a12.792 12.792 0 0 0-1.796-.652c-.631-.179-1.146-.269-1.546-.269-.696 0-1.044.172-1.044.516 0 .212.121.393.364.543s.945.455 2.106.916c.863.358 1.507.709 1.932 1.053s.736.748.936 1.212c.2.463.3 1.028.3 1.693zm7.064.647c.573 0 1.259-.143 2.058-.428v3.126a8.28 8.28 0 0 1-1.639.532 9.271 9.271 0 0 1-1.822.159c-1.43 0-2.46-.353-3.092-1.058-.631-.706-.946-1.79-.946-3.252v-5.122h-1.491v-1.744l1.894-1.349 1.1-2.61h2.786v2.49h3.025v3.213h-3.025v4.837c-.001.804.384 1.206 1.152 1.206zM60.282 47.886H50.031v-1.841l3.9-3.92c1.151-1.179 1.915-2.016 2.291-2.509.376-.493.65-.957.822-1.391s.259-.9.259-1.396c0-.683-.205-1.221-.616-1.614-.41-.393-.978-.59-1.702-.59-.579 0-1.14.107-1.681.321-.542.214-1.167.6-1.877 1.159L50.114 34.5c.841-.71 1.659-1.214 2.452-1.51s1.638-.445 2.535-.445c1.407 0 2.534.367 3.382 1.102s1.272 1.723 1.272 2.964c0 .683-.123 1.331-.367 1.945-.245.614-.621 1.247-1.127 1.898-.507.652-1.35 1.533-2.529 2.643l-2.627 2.545v.104h7.179v2.14zm10.822-7.562c0 2.628-.422 4.58-1.267 5.855-.845 1.276-2.136 1.914-3.874 1.914-1.683 0-2.958-.659-3.827-1.976-.869-1.317-1.304-3.248-1.304-5.793 0-2.668.422-4.636 1.268-5.901.844-1.265 2.132-1.898 3.863-1.898 1.689 0 2.969.662 3.838 1.986.868 1.323 1.303 3.261 1.303 5.813zm-7.811 0c0 2.063.212 3.535.636 4.417.424.883 1.102 1.324 2.033 1.324.931 0 1.612-.448 2.043-1.345.431-.896.646-2.362.646-4.396 0-2.027-.215-3.495-.646-4.401-.431-.907-1.112-1.36-2.043-1.36s-1.608.445-2.033 1.334c-.423.889-.636 2.365-.636 4.427zm15.519 7.562h-2.431v-9.765c0-1.166.027-2.089.083-2.772a8.682 8.682 0 0 1-.584.548c-.231.2-1.005.834-2.323 1.903l-1.22-1.541 4.448-3.497h2.028v15.124zm14.473-3.3h-2.038v3.3h-2.369v-3.3h-6.91v-1.873l6.91-9.993h2.369v9.848h2.038v2.018zm-4.407-2.017v-3.796c0-1.352.035-2.458.104-3.321h-.083c-.193.455-.496 1.007-.91 1.655l-3.755 5.462h4.644zm18.457 1.21c0 1.345-.486 2.4-1.458 3.166-.973.766-2.314 1.148-4.024 1.148s-3.11-.266-4.2-.797v-2.337c.689.324 1.422.579 2.198.765a9.282 9.282 0 0 0 2.167.279c.979 0 1.702-.186 2.167-.559.465-.372.698-.872.698-1.5 0-.565-.214-1.044-.641-1.438-.428-.393-1.311-.859-2.648-1.396-1.379-.559-2.352-1.197-2.917-1.914-.565-.717-.848-1.579-.848-2.586 0-1.262.448-2.255 1.345-2.979s2.1-1.086 3.61-1.086c1.448 0 2.89.317 4.324.952l-.786 2.017c-1.345-.565-2.545-.848-3.6-.848-.8 0-1.407.174-1.82.522-.414.348-.621.809-.621 1.381 0 .393.083.729.248 1.009s.438.543.817.791c.379.249 1.062.576 2.048.983 1.11.462 1.924.893 2.441 1.293.517.4.896.852 1.138 1.355.241.503.362 1.096.362 1.779zm6.394 4.314c-1.779 0-3.171-.519-4.174-1.557-1.003-1.038-1.505-2.467-1.505-4.288 0-1.869.465-3.338 1.396-4.407s2.21-1.604 3.838-1.604c1.51 0 2.703.459 3.579 1.376.875.917 1.313 2.179 1.313 3.786v1.313h-7.624c.034 1.11.334 1.964.9 2.561.565.596 1.362.895 2.39.895.676 0 1.305-.063 1.888-.191a9.813 9.813 0 0 0 1.877-.636v1.976c-.593.283-1.193.483-1.8.6s-1.298.176-2.078.176zm-.444-10.014c-.772 0-1.392.245-1.857.734-.465.49-.743 1.204-.833 2.142h5.193c-.014-.945-.242-1.66-.683-2.146s-1.048-.73-1.82-.73zm13.541 9.807l-.486-1.593h-.082c-.553.697-1.107 1.171-1.666 1.422-.559.252-1.275.378-2.152.378-1.123 0-2-.304-2.631-.911-.633-.606-.947-1.465-.947-2.576 0-1.179.438-2.069 1.314-2.669.875-.6 2.209-.927 4.002-.982l1.977-.062v-.61c0-.731-.172-1.278-.512-1.64-.342-.362-.871-.543-1.588-.543-.586 0-1.148.086-1.688.258-.537.172-1.055.376-1.551.61l-.787-1.738a8.524 8.524 0 0 1 2.039-.74 9.373 9.373 0 0 1 2.09-.253c1.455 0 2.553.317 3.295.952.74.635 1.111 1.631 1.111 2.99v7.707h-1.738zm-3.621-1.656c.883 0 1.592-.246 2.127-.739.533-.493.801-1.185.801-2.074v-.993l-1.469.062c-1.145.042-1.977.233-2.498.574s-.781.864-.781 1.567c0 .51.152.905.455 1.184.305.28.76.419 1.365.419zm15.167-1.603c0 1.117-.407 1.974-1.221 2.57-.813.597-1.979.895-3.496.895-1.524 0-2.749-.231-3.673-.693v-2.1c1.345.621 2.597.931 3.755.931 1.497 0 2.245-.452 2.245-1.355 0-.29-.083-.531-.248-.724-.166-.193-.438-.393-.817-.6-.379-.207-.907-.441-1.583-.703-1.317-.51-2.208-1.021-2.674-1.531-.466-.51-.698-1.172-.698-1.986 0-.979.395-1.74 1.185-2.281.789-.541 1.863-.812 3.223-.812 1.345 0 2.617.272 3.816.817l-.786 1.831c-1.234-.51-2.272-.766-3.113-.766-1.283 0-1.924.366-1.924 1.097 0 .358.167.662.501.91.335.248 1.064.59 2.188 1.024.944.366 1.631.7 2.059 1.003.427.304.744.654.951 1.05s.31.872.31 1.423zm11.504-2.482c0 1.869-.479 3.328-1.438 4.376-.959 1.048-2.293 1.572-4.004 1.572-1.068 0-2.014-.242-2.834-.724-.821-.483-1.452-1.176-1.894-2.08-.441-.903-.662-1.951-.662-3.145 0-1.855.477-3.303 1.428-4.345.952-1.041 2.293-1.562 4.024-1.562 1.655 0 2.965.533 3.931 1.598s1.449 2.503 1.449 4.31zm-8.327 0c0 2.642.976 3.962 2.928 3.962 1.931 0 2.896-1.32 2.896-3.962 0-2.614-.973-3.92-2.918-3.92-1.021 0-1.76.338-2.219 1.014-.458.675-.687 1.643-.687 2.906zm19.914 5.741h-2.441v-7.034c0-.883-.178-1.542-.532-1.976-.355-.435-.919-.652-1.691-.652-1.027 0-1.779.304-2.255.91-.477.607-.714 1.624-.714 3.052v5.7h-2.431V36.445h1.903l.341 1.5h.124c.345-.545.835-.965 1.469-1.262a4.932 4.932 0 0 1 2.11-.445c2.745 0 4.117 1.396 4.117 4.189v7.459zM55.571 17.313h6.922v8.644c-1.879.644-3.945.965-6.198.965-2.472 0-4.382-.716-5.731-2.15-1.349-1.433-2.024-3.477-2.024-6.132 0-2.589.739-4.603 2.216-6.044 1.477-1.44 3.547-2.161 6.208-2.161 1.009 0 1.962.095 2.858.285.896.19 1.676.432 2.342.724l-1.371 3.4c-1.156-.57-2.424-.855-3.807-.855-1.265 0-2.243.412-2.934 1.234-.691.823-1.037 1.999-1.037 3.527 0 1.499.313 2.642.938 3.428s1.526 1.179 2.704 1.179c.644 0 1.236-.062 1.777-.187v-2.512h-2.863v-3.345zm22.455 1.031c0 2.676-.737 4.739-2.21 6.187s-3.545 2.172-6.214 2.172h-5.188V10.666h5.551c2.574 0 4.561.658 5.961 1.975s2.1 3.217 2.1 5.703zm-4.497.154c0-1.47-.291-2.56-.872-3.269-.582-.709-1.464-1.064-2.649-1.064h-1.262v8.983h.965c1.316 0 2.282-.382 2.896-1.146s.922-1.932.922-3.504zm12.462-1.185h6.922v8.644c-1.879.644-3.945.965-6.198.965-2.472 0-4.382-.716-5.731-2.15-1.349-1.433-2.024-3.477-2.024-6.132 0-2.589.739-4.603 2.216-6.044 1.477-1.44 3.547-2.161 6.208-2.161 1.009 0 1.962.095 2.858.285.896.19 1.676.432 2.342.724l-1.371 3.4c-1.156-.57-2.424-.855-3.807-.855-1.265 0-2.243.412-2.934 1.234-.691.823-1.037 1.999-1.037 3.527 0 1.499.313 2.642.938 3.428s1.526 1.179 2.704 1.179c.644 0 1.236-.062 1.777-.187v-2.512h-2.863v-3.345z" fill="#4E4E4E"/><radialGradient id="a" cx="-310.583" cy="-60.055" r="20.114" gradientTransform="matrix(.498 0 0 .498 172.29 79.739)" gradientUnits="userSpaceOnUse"><stop offset="0" stop-color="#ffcf4f"/><stop offset="1" stop-color="#f4c236"/></radialGradient><path fill="url(#a)" d="M8.91 61h6.791c1.607 0 3.604-1.128 4.432-2.511l5.72-9.519c.677-1.396.653-3.426-.119-4.713l-3.378-5.592L8.91 61z"/><radialGradient id="b" cx="-322.635" cy="-70.269" r="27.658" gradientTransform="matrix(.498 0 0 .498 172.29 79.739)" gradientUnits="userSpaceOnUse"><stop offset="0" stop-color="#08a960"/><stop offset="1" stop-color="#07914b"/></radialGradient><path fill="url(#b)" d="M16.209 33.514L1.108 58.763C.524 60.011 1.131 61 2.629 61H8.91l13.446-22.335-6.146-10.173c.829 1.378.829 3.638-.001 5.022"/><radialGradient id="c" cx="-313.183" cy="-109.951" r="40.54" gradientTransform="matrix(.498 0 0 .498 172.29 79.739)" gradientUnits="userSpaceOnUse"><stop offset="0" stop-color="#567fc0"/><stop offset="1" stop-color="#557fc0"/></radialGradient><path fill="url(#c)" d="M2.629 1C1.015 1 .375 2.133 1.205 3.511l24.529 40.745c.772 1.288.795 3.317.119 4.713l5.963-9.925L8.914 1H2.629z"/><radialGradient id="d" cx="-301.119" cy="-119.916" r="33.058" gradientTransform="matrix(.498 0 0 .498 172.29 79.739)" gradientUnits="userSpaceOnUse"><stop offset="0" stop-color="#e14c40"/><stop offset="1" stop-color="#cd392d"/></radialGradient><path fill="url(#d)" d="M8.914 1l22.903 38.045 3.321-5.53c.83-1.385.83-3.645 0-5.023L20.133 3.511C19.305 2.133 17.308 1 15.701 1H8.914z"/><path d="M115.912 80.967c0 2.677-.731 4.738-2.193 6.187-1.462 1.447-3.518 2.171-6.166 2.171h-5.148V73.29h5.507c2.554 0 4.526.657 5.916 1.974s2.084 3.217 2.084 5.703zm-4.462.153c0-1.469-.289-2.559-.866-3.268-.577-.71-1.453-1.064-2.628-1.064h-1.251v8.982h.958c1.306 0 2.264-.382 2.874-1.146.608-.764.913-1.932.913-3.504zm11.679 8.424c-2.053 0-3.646-.55-4.783-1.65-1.136-1.101-1.704-2.667-1.704-4.7 0-2.099.526-3.709 1.578-4.831 1.053-1.122 2.555-1.684 4.506-1.684 1.857 0 3.293.488 4.305 1.464 1.012.977 1.52 2.382 1.52 4.218v1.908h-7.609c.029.694.281 1.239.758 1.634.475.396 1.121.593 1.941.593.748 0 1.436-.071 2.063-.214.629-.143 1.309-.386 2.041-.729v3.082a7.478 7.478 0 0 1-2.068.713c-.712.13-1.56.196-2.548.196zm-.25-9.948c-.5 0-.92.159-1.256.478-.338.318-.537.817-.594 1.497h3.656c-.014-.6-.184-1.078-.506-1.437s-.755-.538-1.3-.538zm9.972 9.728l-4.702-12.426h4.44l2.09 7.348c.008.037.022.099.044.187s.043.192.065.313c.021.121.041.249.06.384.018.136.027.262.027.379h.076c0-.38.065-.793.195-1.239l2.188-7.37h4.43l-4.702 12.426h-4.211zm13.53 0h-4.234V73.29h9.404v3.477h-5.17v3.06h4.767v3.477h-4.767v6.02zm12.147.22c-2.054 0-3.647-.55-4.783-1.65s-1.703-2.667-1.703-4.7c0-2.099.525-3.709 1.578-4.831 1.052-1.122 2.554-1.684 4.506-1.684 1.857 0 3.292.488 4.305 1.464 1.012.977 1.519 2.382 1.519 4.218v1.908h-7.608c.029.694.281 1.239.757 1.634.475.396 1.122.593 1.942.593.747 0 1.435-.071 2.063-.214s1.308-.386 2.041-.729v3.082a7.478 7.478 0 0 1-2.068.713c-.713.13-1.561.196-2.549.196zm-.25-9.948c-.501 0-.92.159-1.257.478-.338.318-.536.817-.594 1.497h3.657c-.015-.6-.184-1.078-.506-1.437s-.756-.538-1.3-.538zm16.263 5.912c0 1.331-.45 2.336-1.35 3.016-.9.681-2.191 1.021-3.875 1.021-.914 0-1.709-.05-2.384-.148s-1.364-.279-2.067-.543V85.42c.66.293 1.384.534 2.171.724.787.19 1.489.285 2.106.285.921 0 1.382-.212 1.382-.636 0-.22-.129-.415-.386-.587-.258-.172-1.007-.506-2.248-1.004-1.132-.468-1.923-.999-2.373-1.596-.449-.596-.675-1.351-.675-2.265 0-1.155.442-2.055 1.328-2.698.885-.644 2.137-.965 3.755-.965.813 0 1.576.09 2.291.269.715.18 1.457.44 2.227.784l-1.154 2.764a12.792 12.792 0 0 0-1.796-.652c-.631-.179-1.146-.269-1.546-.269-.696 0-1.044.172-1.044.516 0 .212.121.393.364.543.243.149.945.455 2.106.915.863.358 1.507.71 1.932 1.054s.736.747.936 1.212c.2.463.3 1.029.3 1.694zm7.064.646c.573 0 1.259-.143 2.058-.428v3.126a8.216 8.216 0 0 1-1.639.532 9.271 9.271 0 0 1-1.822.159c-1.43 0-2.46-.353-3.092-1.059-.631-.705-.946-1.789-.946-3.252V80.11h-1.491v-1.743l1.894-1.35 1.1-2.61h2.786v2.49h3.025v3.213h-3.025v4.837c-.001.806.384 1.207 1.152 1.207zM60.282 110.886H50.031v-1.841l3.9-3.921c1.151-1.18 1.915-2.016 2.291-2.509s.65-.957.822-1.392c.172-.434.259-.899.259-1.396 0-.683-.205-1.221-.616-1.613-.41-.394-.978-.59-1.702-.59-.579 0-1.14.107-1.681.321-.542.214-1.167.6-1.877 1.158L50.114 97.5c.841-.71 1.659-1.214 2.452-1.51a7.168 7.168 0 0 1 2.535-.445c1.407 0 2.534.367 3.382 1.102s1.272 1.723 1.272 2.964c0 .683-.123 1.331-.367 1.944-.245.614-.621 1.247-1.127 1.898s-1.35 1.533-2.529 2.644l-2.627 2.544v.104h7.179v2.141zm10.822-7.562c0 2.627-.422 4.579-1.267 5.854-.845 1.276-2.136 1.914-3.874 1.914-1.683 0-2.958-.658-3.827-1.976-.869-1.317-1.304-3.248-1.304-5.793 0-2.669.422-4.636 1.268-5.901.844-1.266 2.132-1.898 3.863-1.898 1.689 0 2.969.662 3.838 1.986s1.303 3.262 1.303 5.814zm-7.811 0c0 2.062.212 3.534.636 4.417.424.883 1.102 1.324 2.033 1.324.931 0 1.612-.448 2.043-1.345.431-.896.646-2.362.646-4.396 0-2.027-.215-3.495-.646-4.401-.431-.907-1.112-1.36-2.043-1.36s-1.608.444-2.033 1.334c-.423.889-.636 2.365-.636 4.427zm15.519 7.562h-2.431v-9.766c0-1.165.027-2.089.083-2.771a9.228 9.228 0 0 1-.584.548c-.231.2-1.005.835-2.323 1.903l-1.22-1.541 4.448-3.497h2.028v15.124zm14.473-3.3h-2.038v3.3h-2.369v-3.3h-6.91v-1.872l6.91-9.993h2.369v9.848h2.038v2.017zm-4.407-2.018v-3.796c0-1.352.035-2.459.104-3.32h-.083c-.193.455-.496 1.007-.91 1.654l-3.755 5.462h4.644zm18.457 1.211c0 1.345-.486 2.399-1.458 3.165-.973.766-2.314 1.148-4.024 1.148s-3.11-.266-4.2-.797v-2.338c.689.324 1.422.579 2.198.766a9.282 9.282 0 0 0 2.167.279c.979 0 1.702-.187 2.167-.559s.698-.872.698-1.5c0-.565-.214-1.045-.641-1.438-.428-.394-1.311-.858-2.648-1.396-1.379-.559-2.352-1.196-2.917-1.914-.565-.717-.848-1.579-.848-2.586 0-1.262.448-2.255 1.345-2.979.896-.724 2.1-1.086 3.61-1.086 1.448 0 2.89.317 4.324.952l-.786 2.017c-1.345-.565-2.545-.848-3.6-.848-.8 0-1.407.174-1.82.521-.414.349-.621.81-.621 1.382 0 .393.083.729.248 1.008s.438.543.817.792c.379.248 1.062.575 2.048.982 1.11.462 1.924.894 2.441 1.293.517.4.896.852 1.138 1.355.241.505.362 1.099.362 1.781zm6.394 4.314c-1.779 0-3.171-.519-4.174-1.557s-1.505-2.468-1.505-4.288c0-1.869.465-3.338 1.396-4.407.931-1.068 2.21-1.603 3.838-1.603 1.51 0 2.703.458 3.579 1.375.875.918 1.313 2.18 1.313 3.786v1.314h-7.624c.034 1.11.334 1.964.9 2.56.565.597 1.362.896 2.39.896.676 0 1.305-.064 1.888-.191a9.89 9.89 0 0 0 1.877-.637v1.976c-.593.283-1.193.483-1.8.601s-1.298.175-2.078.175zm-.444-10.014c-.772 0-1.392.245-1.857.734-.465.49-.743 1.204-.833 2.142h5.193c-.014-.945-.242-1.66-.683-2.146s-1.048-.73-1.82-.73zm13.541 9.807l-.486-1.593h-.082c-.553.696-1.107 1.171-1.666 1.422-.559.252-1.275.378-2.152.378-1.123 0-2-.304-2.631-.91-.633-.607-.947-1.466-.947-2.576 0-1.179.438-2.068 1.314-2.669.875-.6 2.209-.928 4.002-.982l1.977-.063v-.61c0-.73-.172-1.277-.512-1.64-.342-.361-.871-.543-1.588-.543-.586 0-1.148.087-1.688.259-.537.173-1.055.376-1.551.61l-.787-1.737c.621-.324 1.301-.571 2.039-.74s1.434-.253 2.09-.253c1.455 0 2.553.317 3.295.951.74.635 1.111 1.631 1.111 2.989v7.707h-1.738zm-3.621-1.656c.883 0 1.592-.246 2.127-.739.533-.493.801-1.185.801-2.074v-.993l-1.469.063c-1.145.041-1.977.232-2.498.574-.521.341-.781.863-.781 1.566 0 .511.152.905.455 1.185.305.279.76.418 1.365.418zm15.167-1.603c0 1.117-.407 1.975-1.221 2.571-.813.596-1.979.895-3.496.895-1.524 0-2.749-.231-3.673-.693v-2.1c1.345.62 2.597.931 3.755.931 1.497 0 2.245-.451 2.245-1.354 0-.29-.083-.531-.248-.725-.166-.193-.438-.393-.817-.6s-.907-.441-1.583-.704c-1.317-.51-2.208-1.021-2.674-1.53-.466-.511-.698-1.173-.698-1.986 0-.979.395-1.739 1.185-2.281.789-.541 1.863-.812 3.223-.812 1.345 0 2.617.272 3.816.816l-.786 1.831c-1.234-.51-2.272-.766-3.113-.766-1.283 0-1.924.366-1.924 1.097 0 .359.167.662.501.91.335.249 1.064.59 2.188 1.024.944.366 1.631.7 2.059 1.004.427.303.744.653.951 1.05s.31.87.31 1.422zm11.504-2.482c0 1.869-.479 3.327-1.438 4.376-.959 1.048-2.293 1.572-4.004 1.572-1.068 0-2.014-.241-2.834-.725-.821-.482-1.452-1.176-1.894-2.079s-.662-1.951-.662-3.145c0-1.855.477-3.303 1.428-4.345.952-1.041 2.293-1.562 4.024-1.562 1.655 0 2.965.532 3.931 1.598s1.449 2.503 1.449 4.31zm-8.327 0c0 2.642.976 3.962 2.928 3.962 1.931 0 2.896-1.32 2.896-3.962 0-2.613-.973-3.921-2.918-3.921-1.021 0-1.76.339-2.219 1.015-.458.675-.687 1.644-.687 2.906zm19.914 5.741h-2.441v-7.034c0-.883-.178-1.541-.532-1.976-.355-.435-.919-.652-1.691-.652-1.027 0-1.779.304-2.255.911-.477.606-.714 1.624-.714 3.051v5.7h-2.431V99.444h1.903l.341 1.5h.124c.345-.544.835-.965 1.469-1.262.635-.296 1.338-.444 2.11-.444 2.745 0 4.117 1.396 4.117 4.189v7.459zM55.571 80.313h6.922v8.644c-1.879.644-3.945.966-6.198.966-2.472 0-4.382-.717-5.731-2.15-1.349-1.433-2.024-3.477-2.024-6.132 0-2.589.739-4.603 2.216-6.044 1.477-1.44 3.547-2.161 6.208-2.161 1.009 0 1.962.096 2.858.285.896.19 1.676.432 2.342.725l-1.371 3.4c-1.156-.57-2.424-.855-3.807-.855-1.265 0-2.243.411-2.934 1.233-.691.823-1.037 1.999-1.037 3.527 0 1.499.313 2.642.938 3.428s1.526 1.179 2.704 1.179c.644 0 1.236-.062 1.777-.187v-2.512h-2.863v-3.346zm22.455 1.031c0 2.677-.737 4.739-2.21 6.187-1.474 1.448-3.545 2.172-6.214 2.172h-5.188V73.665h5.551c2.574 0 4.561.658 5.961 1.975s2.1 3.217 2.1 5.704zm-4.497.153c0-1.47-.291-2.56-.872-3.269s-1.464-1.063-2.649-1.063h-1.262v8.983h.965c1.316 0 2.282-.382 2.896-1.146.615-.764.922-1.933.922-3.505zm12.462-1.184h6.922v8.644c-1.879.644-3.945.966-6.198.966-2.472 0-4.382-.717-5.731-2.15-1.349-1.433-2.024-3.477-2.024-6.132 0-2.589.739-4.603 2.216-6.044 1.477-1.44 3.547-2.161 6.208-2.161 1.009 0 1.962.096 2.858.285.896.19 1.676.432 2.342.725l-1.371 3.4c-1.156-.57-2.424-.855-3.807-.855-1.265 0-2.243.411-2.934 1.233-.691.823-1.037 1.999-1.037 3.527 0 1.499.313 2.642.938 3.428s1.526 1.179 2.704 1.179c.644 0 1.236-.062 1.777-.187v-2.512h-2.863v-3.346z" fill="#4E4E4E"/><radialGradient id="e" cx="-310.583" cy="66.455" r="20.114" gradientTransform="matrix(.498 0 0 .498 172.29 79.739)" gradientUnits="userSpaceOnUse"><stop offset="0" stop-color="#ccc"/><stop offset="1" stop-color="silver"/></radialGradient><path fill="url(#e)" d="M8.91 124h6.791c1.607 0 3.604-1.128 4.432-2.511l5.72-9.519c.677-1.396.653-3.426-.119-4.713l-3.378-5.592L8.91 124z"/><radialGradient id="f" cx="-322.635" cy="56.241" r="27.658" gradientTransform="matrix(.498 0 0 .498 172.29 79.739)" gradientUnits="userSpaceOnUse"><stop offset="0" stop-color="#a0a0a0"/><stop offset="1" stop-color="#7b7b7b"/></radialGradient><path fill="url(#f)" d="M16.209 96.514L1.108 121.763C.524 123.011 1.131 124 2.629 124H8.91l13.446-22.335-6.146-10.173c.829 1.378.829 3.638-.001 5.022"/><radialGradient id="g" cx="-313.183" cy="16.559" r="40.54" gradientTransform="matrix(.498 0 0 .498 172.29 79.739)" gradientUnits="userSpaceOnUse"><stop offset="0" stop-color="#848484"/><stop offset="1" stop-color="#838383"/></radialGradient><path fill="url(#g)" d="M2.629 64c-1.613 0-2.254 1.133-1.424 2.511l24.529 40.745c.772 1.288.795 3.317.119 4.713l5.963-9.925L8.914 64H2.629z"/><radialGradient id="h" cx="-301.119" cy="6.594" r="33.058" gradientTransform="matrix(.498 0 0 .498 172.29 79.739)" gradientUnits="userSpaceOnUse"><stop offset="0" stop-color="#626262"/><stop offset="1" stop-color="#474747"/></radialGradient><path fill="url(#h)" d="M8.914 64l22.903 38.045 3.321-5.53c.83-1.385.83-3.645 0-5.023l-15.004-24.98C19.305 65.133 17.308 64 15.701 64H8.914z"/><g><path d="M116.071 143.967c0 2.676-.731 4.738-2.193 6.186-1.462 1.448-3.518 2.172-6.166 2.172h-5.148V136.29h5.507c2.554 0 4.526.658 5.916 1.975s2.084 3.215 2.084 5.702zm-4.463.153c0-1.47-.289-2.559-.866-3.269-.577-.709-1.453-1.063-2.628-1.063h-1.251v8.982h.958c1.306 0 2.264-.382 2.874-1.146.608-.764.913-1.932.913-3.504zm11.679 8.424c-2.053 0-3.646-.551-4.782-1.651-1.136-1.1-1.704-2.667-1.704-4.699 0-2.099.526-3.709 1.578-4.831 1.052-1.123 2.554-1.684 4.505-1.684 1.857 0 3.293.487 4.305 1.464s1.52 2.382 1.52 4.217v1.909H121.1c.029.694.281 1.239.758 1.634.475.395 1.121.592 1.941.592.748 0 1.436-.071 2.063-.214a10.121 10.121 0 0 0 2.041-.729v3.081a7.445 7.445 0 0 1-2.068.713c-.712.132-1.56.198-2.548.198zm-.25-9.948c-.5 0-.92.159-1.256.478-.338.317-.537.816-.594 1.497h3.656c-.014-.6-.184-1.079-.506-1.438-.321-.358-.755-.537-1.3-.537zm9.972 9.728l-4.702-12.427h4.44l2.09 7.349c.008.037.022.099.044.187s.043.192.065.313c.021.121.041.249.06.384.018.136.027.262.027.379h.076c0-.381.065-.794.195-1.239l2.188-7.371h4.43l-4.702 12.427h-4.211zm13.53 0h-4.234v-16.035h9.404v3.478h-5.17v3.06h4.767v3.477h-4.767v6.02zm12.148.22c-2.054 0-3.647-.551-4.783-1.651-1.136-1.1-1.703-2.667-1.703-4.699 0-2.099.525-3.709 1.578-4.831 1.052-1.123 2.554-1.684 4.506-1.684 1.857 0 3.292.487 4.305 1.464 1.012.977 1.519 2.382 1.519 4.217v1.909h-7.608c.029.694.281 1.239.757 1.634.475.395 1.122.592 1.942.592.747 0 1.435-.071 2.063-.214s1.308-.385 2.041-.729v3.081a7.445 7.445 0 0 1-2.068.713c-.714.132-1.562.198-2.549.198zm-.25-9.948c-.501 0-.92.159-1.257.478-.338.317-.536.816-.594 1.497h3.657c-.015-.6-.184-1.079-.506-1.438-.323-.358-.757-.537-1.3-.537zm16.262 5.912c0 1.33-.45 2.336-1.35 3.016-.9.68-2.191 1.021-3.875 1.021-.914 0-1.709-.05-2.384-.148s-1.364-.279-2.067-.543v-3.433c.66.292 1.384.533 2.171.724s1.489.285 2.106.285c.921 0 1.382-.212 1.382-.636 0-.22-.129-.415-.386-.587-.258-.172-1.007-.507-2.248-1.004-1.132-.468-1.923-1-2.373-1.596-.449-.596-.675-1.351-.675-2.265 0-1.155.442-2.055 1.328-2.698.885-.644 2.137-.965 3.755-.965.813 0 1.576.089 2.291.269.715.179 1.457.44 2.227.784l-1.154 2.764a12.668 12.668 0 0 0-1.796-.652c-.631-.18-1.146-.269-1.546-.269-.696 0-1.044.172-1.044.516 0 .212.121.393.364.542.243.15.945.456 2.106.916.863.358 1.507.71 1.932 1.053.425.344.736.748.936 1.212.201.463.3 1.028.3 1.694zm7.065.646c.573 0 1.259-.143 2.058-.428v3.126a8.28 8.28 0 0 1-1.639.532 9.271 9.271 0 0 1-1.822.159c-1.43 0-2.46-.354-3.092-1.059-.631-.706-.946-1.79-.946-3.252v-5.122h-1.491v-1.744l1.894-1.349 1.1-2.61h2.786v2.489h3.025v3.214h-3.025v4.837c-.002.806.383 1.207 1.152 1.207zM60.441 173.886H50.19v-1.841l3.9-3.921c1.151-1.18 1.915-2.016 2.291-2.509s.65-.957.822-1.392c.172-.434.259-.899.259-1.396 0-.683-.205-1.221-.616-1.613-.41-.394-.978-.59-1.702-.59-.579 0-1.14.107-1.681.321-.542.214-1.167.6-1.877 1.158l-1.314-1.604c.841-.71 1.659-1.214 2.452-1.51a7.168 7.168 0 0 1 2.535-.445c1.407 0 2.534.367 3.382 1.102s1.272 1.723 1.272 2.964c0 .683-.123 1.331-.367 1.944-.245.614-.621 1.247-1.127 1.898s-1.35 1.533-2.529 2.644l-2.627 2.544v.104h7.179v2.142zm10.821-7.562c0 2.627-.422 4.579-1.267 5.854-.845 1.276-2.136 1.914-3.874 1.914-1.683 0-2.958-.658-3.827-1.976-.869-1.317-1.304-3.248-1.304-5.793 0-2.669.422-4.636 1.268-5.901.844-1.266 2.132-1.898 3.863-1.898 1.689 0 2.969.662 3.838 1.986s1.303 3.262 1.303 5.814zm-7.81 0c0 2.062.212 3.534.636 4.417.424.883 1.102 1.324 2.033 1.324.931 0 1.612-.448 2.043-1.345.431-.896.646-2.362.646-4.396 0-2.027-.215-3.495-.646-4.401-.431-.907-1.112-1.36-2.043-1.36s-1.608.444-2.033 1.334c-.423.889-.636 2.365-.636 4.427zm15.519 7.562H76.54v-9.766c0-1.165.027-2.089.083-2.771a9.228 9.228 0 0 1-.584.548c-.231.2-1.005.835-2.323 1.903l-1.22-1.541 4.448-3.497h2.028v15.124zm14.472-3.3h-2.038v3.3h-2.369v-3.3h-6.91v-1.872l6.91-9.993h2.369v9.848h2.038v2.017zm-4.406-2.018v-3.796c0-1.352.035-2.459.104-3.32h-.083c-.193.455-.496 1.007-.91 1.654l-3.755 5.462h4.644zm18.457 1.211c0 1.345-.486 2.399-1.458 3.165-.973.766-2.314 1.148-4.024 1.148s-3.11-.266-4.2-.797v-2.338c.689.324 1.422.579 2.198.766a9.282 9.282 0 0 0 2.167.279c.979 0 1.702-.187 2.167-.559s.698-.872.698-1.5c0-.565-.214-1.045-.641-1.438-.428-.394-1.311-.858-2.648-1.396-1.379-.559-2.352-1.196-2.917-1.914-.565-.717-.848-1.579-.848-2.586 0-1.262.448-2.255 1.345-2.979.896-.724 2.1-1.086 3.61-1.086 1.448 0 2.89.317 4.324.952l-.786 2.017c-1.345-.565-2.545-.848-3.6-.848-.8 0-1.407.174-1.82.521-.414.349-.621.81-.621 1.382 0 .393.083.729.248 1.008s.438.543.817.792c.379.248 1.062.575 2.048.982 1.11.462 1.924.894 2.441 1.293.517.4.896.852 1.138 1.355.241.505.362 1.099.362 1.781zm6.394 4.314c-1.779 0-3.171-.519-4.174-1.557s-1.505-2.468-1.505-4.288c0-1.869.465-3.338 1.396-4.407.931-1.068 2.21-1.603 3.838-1.603 1.51 0 2.703.458 3.579 1.375.875.918 1.313 2.18 1.313 3.786v1.314h-7.624c.034 1.11.334 1.964.9 2.56.565.597 1.362.896 2.39.896.676 0 1.305-.064 1.888-.191a9.89 9.89 0 0 0 1.877-.637v1.976c-.593.283-1.193.483-1.8.601s-1.299.175-2.078.175zm-.445-10.014c-.772 0-1.392.245-1.857.734-.465.49-.743 1.204-.833 2.142h5.193c-.014-.945-.242-1.66-.683-2.146s-1.048-.73-1.82-.73zm13.541 9.807l-.486-1.593h-.082c-.553.696-1.107 1.171-1.666 1.422-.559.252-1.275.378-2.152.378-1.123 0-2-.304-2.631-.91-.633-.607-.947-1.466-.947-2.576 0-1.179.438-2.068 1.314-2.669.875-.6 2.209-.928 4.002-.982l1.977-.063v-.61c0-.73-.172-1.277-.512-1.64-.342-.361-.871-.543-1.588-.543-.586 0-1.148.087-1.688.259-.537.173-1.055.376-1.551.61l-.787-1.737c.621-.324 1.301-.571 2.039-.74s1.434-.253 2.09-.253c1.455 0 2.553.317 3.295.951.74.635 1.111 1.631 1.111 2.989v7.707h-1.738zm-3.621-1.656c.883 0 1.592-.246 2.127-.739.533-.493.801-1.185.801-2.074v-.993l-1.469.063c-1.145.041-1.977.232-2.498.574-.521.341-.781.863-.781 1.566 0 .511.152.905.455 1.185.305.279.76.418 1.365.418zm15.167-1.603c0 1.117-.407 1.975-1.221 2.571-.813.596-1.979.895-3.496.895-1.524 0-2.749-.231-3.673-.693v-2.1c1.345.62 2.597.931 3.755.931 1.497 0 2.245-.451 2.245-1.354 0-.29-.083-.531-.248-.725-.166-.193-.438-.393-.817-.6s-.907-.441-1.583-.704c-1.317-.51-2.208-1.021-2.674-1.53-.466-.511-.698-1.173-.698-1.986 0-.979.395-1.739 1.185-2.281.789-.541 1.863-.812 3.223-.812 1.345 0 2.617.272 3.816.816l-.786 1.831c-1.234-.51-2.272-.766-3.113-.766-1.283 0-1.924.366-1.924 1.097 0 .359.167.662.501.91.335.249 1.064.59 2.188 1.024.944.366 1.631.7 2.059 1.004.427.303.744.653.951 1.05s.31.87.31 1.422zm11.504-2.482c0 1.869-.479 3.327-1.438 4.376-.959 1.048-2.293 1.572-4.004 1.572-1.068 0-2.014-.241-2.834-.725-.821-.482-1.452-1.176-1.894-2.079s-.662-1.951-.662-3.145c0-1.855.477-3.303 1.428-4.345.952-1.041 2.293-1.562 4.024-1.562 1.655 0 2.965.532 3.931 1.598s1.449 2.503 1.449 4.31zm-8.327 0c0 2.642.976 3.962 2.928 3.962 1.931 0 2.896-1.32 2.896-3.962 0-2.613-.973-3.921-2.918-3.921-1.021 0-1.76.339-2.219 1.015-.457.675-.687 1.644-.687 2.906zm19.914 5.741h-2.441v-7.034c0-.883-.178-1.541-.532-1.976-.355-.435-.919-.652-1.691-.652-1.027 0-1.779.304-2.255.911-.477.606-.714 1.624-.714 3.051v5.7h-2.431v-11.441h1.903l.341 1.5h.124c.345-.544.835-.965 1.469-1.262.635-.296 1.338-.444 2.11-.444 2.745 0 4.117 1.396 4.117 4.189v7.458zM55.729 143.313h6.922v8.644c-1.879.644-3.945.966-6.198.966-2.472 0-4.382-.717-5.731-2.15s-2.024-3.478-2.024-6.132c0-2.589.739-4.604 2.216-6.044s3.547-2.161 6.208-2.161c1.009 0 1.962.096 2.858.285.896.19 1.676.432 2.342.725l-1.371 3.4c-1.156-.57-2.424-.855-3.807-.855-1.265 0-2.243.411-2.934 1.233-.691.823-1.037 1.998-1.037 3.526 0 1.5.313 2.643.938 3.429s1.526 1.179 2.704 1.179c.644 0 1.236-.062 1.777-.187v-2.512h-2.863v-3.346zm22.456 1.032c0 2.677-.737 4.738-2.21 6.187s-3.545 2.172-6.214 2.172h-5.188v-16.037h5.551c2.574 0 4.561.658 5.961 1.975s2.1 3.216 2.1 5.703zm-4.497.153c0-1.47-.291-2.56-.872-3.269s-1.464-1.064-2.649-1.064h-1.262v8.984h.965c1.316 0 2.282-.383 2.896-1.146.614-.765.922-1.933.922-3.505zm12.462-1.185h6.922v8.644c-1.879.644-3.945.966-6.198.966-2.472 0-4.382-.717-5.731-2.15s-2.024-3.478-2.024-6.132c0-2.589.739-4.604 2.216-6.044s3.547-2.161 6.208-2.161c1.009 0 1.962.096 2.858.285.896.19 1.676.432 2.342.725l-1.371 3.4c-1.156-.57-2.424-.855-3.807-.855-1.265 0-2.243.411-2.934 1.233-.691.823-1.037 1.998-1.037 3.526 0 1.5.313 2.643.938 3.429s1.526 1.179 2.704 1.179c.644 0 1.236-.062 1.777-.187v-2.512H86.15v-3.346z" fill="#E6E6E5"/><radialGradient id="i" cx="-310.265" cy="192.965" r="20.114" gradientTransform="matrix(.498 0 0 .498 172.29 79.739)" gradientUnits="userSpaceOnUse"><stop offset="0" stop-color="#ffcf4f"/><stop offset="1" stop-color="#f4c236"/></radialGradient><path fill="url(#i)" d="M9.068 187h6.791c1.607 0 3.604-1.128 4.432-2.511l5.72-9.519c.677-1.396.653-3.426-.119-4.713l-3.378-5.592L9.068 187z"/><radialGradient id="j" cx="-322.317" cy="182.751" r="27.658" gradientTransform="matrix(.498 0 0 .498 172.29 79.739)" gradientUnits="userSpaceOnUse"><stop offset="0" stop-color="#08a960"/><stop offset="1" stop-color="#07914b"/></radialGradient><path fill="url(#j)" d="M16.368 159.514L1.266 184.763C.683 186.011 1.289 187 2.787 187h6.281l13.446-22.335-6.146-10.173c.829 1.378.829 3.638 0 5.022"/><radialGradient id="k" cx="-312.865" cy="143.069" r="40.54" gradientTransform="matrix(.498 0 0 .498 172.29 79.739)" gradientUnits="userSpaceOnUse"><stop offset="0" stop-color="#567fc0"/><stop offset="1" stop-color="#557fc0"/></radialGradient><path fill="url(#k)" d="M2.787 127c-1.613 0-2.254 1.133-1.424 2.511l24.529 40.745c.772 1.288.795 3.317.119 4.713l5.963-9.925L9.072 127H2.787z"/><radialGradient id="l" cx="-300.801" cy="133.104" r="33.058" gradientTransform="matrix(.498 0 0 .498 172.29 79.739)" gradientUnits="userSpaceOnUse"><stop offset="0" stop-color="#e14c40"/><stop offset="1" stop-color="#cd392d"/></radialGradient><path fill="url(#l)" d="M9.072 127l22.903 38.045 3.321-5.53c.83-1.385.83-3.645 0-5.023l-15.004-24.981c-.829-1.378-2.825-2.511-4.432-2.511H9.072z"/></g></svg>