<svg width="200" height="200" xmlns="http://www.w3.org/2000/svg" viewBox="0 0 100 100"><path d="M58.8 20.7s3 28-18 28.3h-.2c-21-.2-18-28.3-18-28.3C23.6 2 39.2 2.1 40.8 2.2c1.5-.1 17.2-.2 18 18.5zM47 76.7l-4.3-12.1c7.5-10.4-.5-11-2-11-1.4 0-9.4.5-2 11l-4.3 12.1-7.3-23s-9.2 4.4-17.3 9.6c-6.2 3.9-7.3 8.1-7.5 14.1v20.5h62.1c-6-4.3-9.9-11.4-9.9-19.4 0-8 4-15.1 10-19.4-5.5-3.1-10.1-5.3-10.1-5.3L47 76.7zm37.9 6.6c-.1-.1-.1-.1 0 0l-4.2-5c-.2-.2-.3-.5-.3-.7l-.6-9.2c-.1-.9-.8-1.5-1.7-1.5-.9 0-1.6.6-1.7 1.5v.1l-.7 10.1v.3c0 .6.2 1.2.7 1.7l.3.3 5.7 4.8c.7.6 1.6.5 2.3-.1.6-.7.7-1.7.2-2.3zm12.7-4.9c0 10.7-8.7 19.4-19.4 19.4s-19.4-8.7-19.4-19.4S67.5 59 78.2 59s19.4 8.8 19.4 19.4zm-5 0c0-7.9-6.4-14.4-14.4-14.4-7.9 0-14.4 6.4-14.4 14.4s6.4 14.4 14.4 14.4 14.4-6.4 14.4-14.4z"/></svg>